<svg width="12" height="13" viewBox="0 0 12 13" fill="none" xmlns="http://www.w3.org/2000/svg">
<path d="M6 0.5C4.81331 0.5 3.65328 0.851894 2.66658 1.51118C1.67989 2.17047 0.910851 3.10754 0.456725 4.2039C0.0025997 5.30025 -0.11622 6.50665 0.115291 7.67054C0.346802 8.83443 0.918247 9.90352 1.75736 10.7426C2.59648 11.5818 3.66557 12.1532 4.82946 12.3847C5.99335 12.6162 7.19975 12.4974 8.2961 12.0433C9.39246 11.5891 10.3295 10.8201 10.9888 9.83342C11.6481 8.84672 12 7.68669 12 6.5C12 5.71207 11.8448 4.93185 11.5433 4.2039C11.2417 3.47594 10.7998 2.81451 10.2426 2.25736C9.68549 1.70021 9.02405 1.25825 8.2961 0.956723C7.56815 0.655195 6.78793 0.5 6 0.5ZM8.58 5.066L5.838 8.666C5.78211 8.73861 5.71032 8.79745 5.62816 8.83801C5.546 8.87857 5.45563 8.89978 5.364 8.9C5.27287 8.90049 5.18282 8.88021 5.10069 8.84071C5.01856 8.8012 4.94651 8.74351 4.89 8.672L3.426 6.806C3.37754 6.74375 3.34182 6.67257 3.32087 6.59652C3.29992 6.52047 3.29416 6.44103 3.30391 6.36275C3.31366 6.28447 3.33873 6.20888 3.3777 6.14029C3.41666 6.0717 3.46876 6.01146 3.531 5.963C3.65671 5.86513 3.81615 5.82122 3.97425 5.84091C4.05253 5.85066 4.12812 5.87573 4.19671 5.9147C4.2653 5.95366 4.32554 6.00575 4.374 6.068L5.352 7.316L7.62 4.316C7.66806 4.25296 7.72807 4.20001 7.7966 4.16017C7.86513 4.12033 7.94083 4.09437 8.01939 4.08379C8.09795 4.0732 8.17782 4.07819 8.25445 4.09847C8.33108 4.11876 8.40297 4.15394 8.466 4.202C8.52904 4.25006 8.58199 4.31007 8.62183 4.3786C8.66167 4.44713 8.68763 4.52283 8.69821 4.60139C8.7088 4.67995 8.70381 4.75982 8.68352 4.83645C8.66324 4.91308 8.62806 4.98496 8.58 5.048V5.066Z" fill="#00A365"/>
</svg>
