<svg width="225" height="41" viewBox="0 0 225 41" fill="none" xmlns="http://www.w3.org/2000/svg">
<path d="M190.419 27.6239C193.321 27.6239 195.683 25.178 195.683 22.151C195.683 19.0829 193.321 16.637 190.419 16.637C187.516 16.637 185.154 19.0829 185.154 22.151C185.154 25.178 187.557 27.6239 190.419 27.6239ZM182.086 13.9005C184.323 11.6615 187.267 10.4188 190.294 10.4188C193.528 10.4188 196.305 11.5383 198.544 13.6526C200.906 15.8917 202.193 18.9597 202.193 21.9852C202.193 25.3438 201.074 28.1213 198.835 30.3603C196.555 32.6405 193.735 33.8421 190.377 33.8421C186.978 33.8421 184.241 32.6815 181.961 30.2767C179.804 28.0376 178.686 25.1764 178.686 22.0689C178.686 18.9597 179.888 16.0985 182.086 13.9005Z" fill="#333436"/>
<path d="M142.425 27.6239C145.328 27.6239 147.69 25.178 147.69 22.151C147.69 19.0829 145.326 16.637 142.425 16.637C139.525 16.637 137.161 19.0829 137.161 22.151C137.159 25.178 139.564 27.6239 142.425 27.6239ZM134.091 13.9005C136.33 11.6615 139.274 10.4188 142.299 10.4188C145.533 10.4188 148.311 11.5383 150.55 13.6526C152.913 15.8917 154.199 18.9597 154.199 21.9852C154.199 25.3438 153.079 28.1213 150.84 30.3603C148.56 32.6405 145.74 33.8421 142.383 33.8421C138.983 33.8421 136.247 32.6815 133.967 30.2767C131.811 28.0376 130.692 25.1764 130.692 22.0689C130.692 18.9597 131.895 16.0985 134.091 13.9005Z" fill="#333436"/>
<path d="M62.8329 33.22H69.3416V2.38309L62.8329 3.74105V33.22Z" fill="#333436"/>
<path d="M52.8961 33.2168H59.4048V10.9541H52.8961V33.2168Z" fill="#333436"/>
<path d="M56.1504 0.42983C53.9445 0.42983 52.157 2.21729 52.157 4.4232C52.157 6.6291 53.9445 8.41656 56.1504 8.41656C58.3563 8.41656 60.1438 6.6291 60.1438 4.4232C60.1438 2.21729 58.3547 0.42983 56.1504 0.42983Z" fill="#333436"/>
<path d="M82.8771 23.9305L78.6895 10.9541H71.4339L79.6006 31.8494L76.4378 40.4298H83.0303L94.6519 10.9541H87.6047L82.8771 23.9305Z" fill="#333436"/>
<path d="M13.2529 27.3523C9.89431 27.3523 7.49103 24.9885 7.49103 21.8794C7.49103 18.895 9.8959 16.3654 13.005 16.3654C16.0731 16.3654 18.4353 18.7703 18.4353 21.9615C18.4353 25.0311 16.0715 27.3523 13.2529 27.3523ZM22.9924 22.001C22.9924 19.544 23.5892 17.2402 24.7372 15.1843V2.32308L18.1874 3.67946V13.381C16.6952 11.4736 14.6219 10.5625 11.9265 10.5625C9.10796 10.5625 6.57835 11.5983 4.50509 13.6305C2.18391 15.868 0.939636 18.7292 0.939636 21.9204C0.939636 25.4022 2.26602 28.3881 4.83668 30.6683C6.78521 32.4099 9.10638 33.28 11.8018 33.28C14.4546 33.28 16.4457 32.5757 18.3942 30.6683V33.1552H24.7356V28.9408C23.5956 26.8707 22.9924 24.5321 22.9924 22.001Z" fill="#333436"/>
<path d="M129.449 15.849C129.173 14.6616 128.704 13.7221 127.992 12.8899C126.754 11.4436 125.01 10.7614 122.912 10.5814C121.206 10.4346 119.736 10.654 118.32 11.4009C116.787 12.211 115.045 14.1026 115.045 14.1026C115.045 14.1026 113.314 10.5372 108.986 10.5372C105.931 10.5372 104.068 11.8336 102.816 13.9368V10.9525H96.8878V33.2168H103.106V21.4957C103.106 19.0561 103.675 16.6354 106.967 16.6354C109.807 16.6354 110.029 18.9487 110.029 20.8704V33.2168H116.455V21.4199C116.455 17.6602 118.089 16.637 120.341 16.637C122.159 16.637 123.378 17.4581 123.378 20.8719V33.2184H129.762V28.9755C128.62 26.8849 128.018 24.5353 128.018 22.0246C128.02 19.8503 128.522 17.7549 129.449 15.849Z" fill="#333436"/>
<path d="M164.886 2.38307L158.252 3.74104V11.0677H155.434V17.5102H158.252V33.2168H164.886V17.5102H167.829V11.0662H164.886V2.38307Z" fill="#333436"/>
<path d="M173.96 8.41656C176.166 8.41656 177.954 6.6291 177.954 4.4232C177.954 2.21729 176.166 0.42983 173.96 0.42983C171.754 0.42983 169.967 2.21729 169.967 4.4232C169.967 6.6291 171.754 8.41656 173.96 8.41656Z" fill="#333436"/>
<path d="M177.215 16.3733V10.9541H170.706V33.2168H177.215V27.9065C176.43 26.1048 176.013 24.1437 176.013 22.0688C176.013 20.0761 176.433 18.1497 177.215 16.3733Z" fill="#333436"/>
<path d="M217.153 10.5403C214.208 10.5403 212.137 11.7009 210.768 13.94L210.851 10.9556H204.631V33.2168H211.058V21.153C211.058 18.1686 212.425 16.6338 214.996 16.6338C217.526 16.6338 218.189 18.0439 218.189 21.153V33.2168H224.739V18.5413C224.739 13.441 221.754 10.5403 217.153 10.5403Z" fill="#333436"/>
<path d="M37.9789 27.4139C40.7975 27.4139 43.1613 25.0911 43.1613 22.0246C43.1613 18.8318 40.7975 16.4286 37.731 16.4286C34.6219 16.4286 32.217 18.9566 32.217 21.9425C32.2155 25.0501 34.6203 27.4139 37.9789 27.4139ZM43.1187 30.7298C41.1702 32.6373 39.1806 33.3416 36.5278 33.3416C33.8324 33.3416 31.5112 32.4699 29.5627 30.7298C26.992 28.4481 25.6656 25.4638 25.6656 21.982C25.6656 18.7908 26.9099 15.9296 29.2311 13.6905C31.3044 11.6583 33.8324 10.6225 36.6525 10.6225C39.3464 10.6225 41.4196 11.5336 42.9134 13.4426V10.9541H49.4632V33.2168H43.1202V30.7298" fill="#333436"/>
</svg>
