<svg width="36" height="54" viewBox="0 0 36 54" fill="none" xmlns="http://www.w3.org/2000/svg">
<path d="M17.7692 3V51" stroke="#FDD83C" stroke-width="5" stroke-linecap="round" stroke-linejoin="round"/>
<path d="M30.6923 17.7692C30.6923 16.557 30.4535 15.3567 29.9897 14.2368C29.5258 13.1168 28.8458 12.0992 27.9887 11.2421C27.1315 10.3849 26.1139 9.70499 24.994 9.2411C23.8741 8.77721 22.6737 8.53845 21.4615 8.53845H13.1538C10.7057 8.53845 8.35781 9.51098 6.62671 11.2421C4.8956 12.9732 3.92308 15.3211 3.92308 17.7692C3.92308 20.2174 4.8956 22.5653 6.62671 24.2964C8.35781 26.0275 10.7057 27 13.1538 27H23.3077C25.7558 27 28.1037 27.9725 29.8348 29.7036C31.5659 31.4347 32.5385 33.7826 32.5385 36.2308C32.5385 38.6789 31.5659 41.0268 29.8348 42.7579C28.1037 44.489 25.7558 45.4615 23.3077 45.4615H12.2308C9.78262 45.4615 7.43473 44.489 5.70363 42.7579C3.97252 41.0268 3 38.6789 3 36.2308" stroke="#FDD83C" stroke-width="5" stroke-linecap="round" stroke-linejoin="round"/>
</svg>
