<svg width="167" height="32" viewBox="0 0 167 32" fill="none" xmlns="http://www.w3.org/2000/svg">
<path fill-rule="evenodd" clip-rule="evenodd" d="M54.7337 6.39966H54.7989C55.125 6.39966 55.3207 6.6673 55.3207 7.00185V22.525C55.3207 22.7927 55.125 23.0603 54.7989 23.0603C54.5381 23.0603 54.2771 22.8595 54.2771 22.525V6.93495C54.2771 6.6673 54.4728 6.39966 54.7337 6.39966ZM40.4507 7.20277H50.2988C50.6251 7.20277 50.8206 7.53732 50.8206 7.80495C50.8206 8.07259 50.6251 8.34024 50.2988 8.34024H40.9725V14.8305H49.3858C49.6467 14.8305 49.9075 15.0313 49.9075 15.3658C49.9075 15.6334 49.7119 15.9011 49.3858 15.9011H41.0376V22.5921C40.9725 22.9267 40.7115 23.1943 40.3854 23.1943C40.0594 23.1943 39.7985 22.9267 39.7985 22.5921V7.80495H39.8638C39.8638 7.4704 40.1246 7.20277 40.4507 7.20277ZM69.0173 12.0202C69.0173 11.6856 68.7563 11.4849 68.4954 11.4849C68.1694 11.4849 67.9736 11.7526 67.9736 12.0202V18.5105C67.9736 20.7185 66.2127 22.4581 64.0605 22.3912C61.7778 22.3912 60.4734 20.8523 60.4734 18.4435V12.0202C60.4734 11.6856 60.2125 11.4849 59.9516 11.4849C59.6908 11.4849 59.4298 11.7526 59.4298 12.0202V18.6443C59.4298 21.3876 61.1256 23.3949 63.93 23.3949C65.6258 23.4619 67.2562 22.5251 68.0389 20.9862V22.6589C68.0389 22.9934 68.2999 23.1942 68.5607 23.1942C68.8868 23.1942 69.0825 22.9266 69.0825 22.6589H69.0173V12.0202ZM78.9305 12.0866C78.9305 12.3543 78.6697 12.555 78.4088 12.555H74.8217V19.9821C74.8217 21.6548 75.7348 22.257 77.1044 22.257C77.5609 22.257 78.0175 22.1901 78.4088 22.0562C78.6697 22.0562 78.8653 22.257 78.8653 22.5246C78.8653 22.7254 78.7349 22.926 78.5392 22.9929C78.0175 23.1937 77.4305 23.2606 76.9088 23.2606C75.213 23.2606 73.7782 22.257 73.7782 20.1158V12.555H72.5391C72.2781 12.555 72.0173 12.2874 72.0173 12.0197C72.0173 11.7521 72.2781 11.5513 72.5391 11.5513H73.7782V8.33966C73.7782 8.07201 73.9739 7.80438 74.2347 7.80438H74.3C74.5608 7.80438 74.8217 8.07201 74.8217 8.33966V11.5513H78.4088C78.6697 11.5513 78.9305 11.819 78.9305 12.0866ZM87.2786 12.555C87.5395 12.555 87.8003 12.3543 87.8003 12.0866C87.8003 11.819 87.5395 11.5513 87.2786 11.5513H83.6914V8.33966C83.6914 8.07201 83.4306 7.80438 83.1698 7.80438H83.1045C82.8437 7.80438 82.6479 8.07201 82.6479 8.33966V11.5513H81.4088C81.1479 11.5513 80.887 11.7521 80.887 12.0197C80.887 12.2874 81.1479 12.555 81.4088 12.555H82.6479V20.1158C82.6479 22.257 84.0828 23.2606 85.7785 23.2606C86.3002 23.2606 86.8873 23.1937 87.409 22.9929C87.6047 22.926 87.7352 22.7254 87.7352 22.5246C87.7352 22.257 87.5395 22.0562 87.2786 22.0562C86.8873 22.1901 86.4307 22.257 85.9741 22.257C84.6046 22.257 83.6914 21.6548 83.6914 19.9821V12.555H87.2786ZM89.7573 17.306C89.7573 13.8935 92.04 11.2171 95.1054 11.2171C98.3011 11.2171 100.323 13.8935 100.323 17.306C100.323 17.5735 100.062 17.8412 99.8012 17.8412H90.9313C91.127 20.7184 93.1488 22.3911 95.3662 22.3911C96.7359 22.3911 98.1055 21.7889 99.0187 20.7853C99.0838 20.7184 99.2142 20.6514 99.3447 20.6514C99.6056 20.6514 99.8664 20.9191 99.8664 21.1867C99.8664 21.3206 99.8012 21.4544 99.6708 21.5883C98.5621 22.8595 96.9315 23.5286 95.3011 23.4617C92.301 23.4617 89.7573 21.053 89.7573 17.3729V17.306ZM90.8658 16.7705C91.0615 14.2278 92.8224 12.2874 95.0399 12.2874C97.5835 12.2874 98.953 14.4285 99.0835 16.7705H90.8658ZM104.562 14.8974C105.279 12.957 107.04 11.5519 109.062 11.418C109.388 11.418 109.649 11.6857 109.649 12.0872C109.649 12.3548 109.453 12.6893 109.127 12.6893H109.062C106.649 12.957 104.562 14.7636 104.562 18.5105V22.7928C104.497 23.1273 104.301 23.3281 103.975 23.3281C103.714 23.3281 103.453 23.0604 103.453 22.7928V12.0872C103.518 11.7526 103.714 11.5519 104.04 11.5519C104.301 11.5519 104.562 11.8195 104.562 12.0872V14.8974ZM126.867 10.8159C126.085 10.8159 125.433 11.3512 125.237 12.1541L123.346 18.3768L121.454 12.1541C121.259 11.3512 120.541 10.749 119.693 10.749H119.498C118.65 10.749 117.932 11.2843 117.737 12.1541L115.845 18.3099L114.019 12.0872C113.823 11.3512 113.171 10.749 112.389 10.749H112.323C111.476 10.749 110.823 11.485 110.823 12.3549C110.823 12.6225 110.889 12.8901 110.954 13.1577V13.1578L113.889 21.7892C114.084 22.659 114.802 23.2612 115.715 23.3281H115.845C116.693 23.3281 117.411 22.7259 117.671 21.8561L119.563 15.7003L121.454 21.8561C121.65 22.7259 122.432 23.3281 123.28 23.3281H123.411C124.324 23.3281 125.107 22.7259 125.302 21.7892L128.237 13.0909C128.303 12.8901 128.367 12.6225 128.367 12.4218V12.3549C128.367 11.485 127.715 10.8159 126.867 10.8159ZM131.432 11.4176C132.672 11.0162 133.911 10.7485 135.215 10.8154C137.041 10.8154 138.345 11.3507 139.323 12.2205C140.237 13.291 140.694 14.6962 140.628 16.1014V21.588C140.628 22.5248 139.91 23.2607 138.998 23.2607C138.15 23.2607 137.432 22.6585 137.367 21.7887C136.454 22.7923 135.15 23.3945 133.78 23.3276C131.628 23.3276 129.736 21.9894 129.736 19.5807C129.736 16.9042 131.692 15.6329 134.498 15.6329C135.476 15.6329 136.454 15.7668 137.367 16.1014V15.9006C137.367 14.4285 136.519 13.6926 134.823 13.6926C134.041 13.6926 133.259 13.7595 132.476 14.0271C132.345 14.094 132.149 14.094 132.019 14.094C131.237 14.1609 130.584 13.5587 130.584 12.7559C130.584 12.1536 130.91 11.6183 131.432 11.4176ZM137.433 18.7778C137.433 20.116 136.324 20.9189 134.759 20.8521C133.715 20.8521 132.933 20.3167 132.933 19.38V19.3131C132.933 18.3094 133.845 17.6403 135.28 17.6403C135.998 17.6403 136.781 17.8411 137.433 18.1087V18.7778ZM150.672 11.9534C150.868 11.2174 151.52 10.749 152.237 10.749C153.15 10.749 153.868 11.485 153.868 12.3549V12.4218C153.868 12.6893 153.803 12.957 153.672 13.2247L150.151 21.8561C149.824 22.7259 149.042 23.2612 148.194 23.3281H147.998C147.086 23.2612 146.368 22.659 146.106 21.7892L142.454 13.1578C142.324 12.8901 142.259 12.6225 142.259 12.3549C142.324 11.4181 143.041 10.749 143.889 10.749C144.671 10.749 145.324 11.2843 145.519 12.0203L148.064 19.0458L150.672 11.9534ZM161.043 10.6822C157.586 10.6822 155.173 13.5593 155.173 17.0386V17.5739C155.303 20.9194 158.107 23.5289 161.368 23.3282C162.869 23.3282 164.303 22.8598 165.477 21.8562C165.804 21.5885 165.934 21.254 165.934 20.8526V20.7856C165.934 20.0496 165.347 19.4474 164.63 19.4474C164.369 19.4474 164.042 19.5143 163.847 19.7151C163.13 20.2504 162.282 20.5849 161.434 20.518C159.999 20.5849 158.76 19.5812 158.564 18.1092H165.281C166.129 18.0422 166.782 17.3063 166.716 16.4364V16.1688C166.716 13.1579 164.173 10.6153 161.043 10.6822ZM161.043 13.4919C159.672 13.4919 158.76 14.4956 158.498 16.1014H163.521C163.325 14.5624 162.412 13.4919 161.043 13.4919Z" fill="#333333"/>
<path fill-rule="evenodd" clip-rule="evenodd" d="M24.604 0.250295C39.364 -1.88308 29.9177 10.227 25.3256 13.6152C28.4744 15.9369 31.6888 19.1997 33.0665 22.9017C35.6249 29.6784 29.3272 30.6823 24.604 28.9881C19.4215 27.2313 14.8295 23.4664 11.8119 19.0742C10.9591 19.0742 10.0407 18.9487 9.18788 18.6978C10.8935 23.341 11.6151 28.1097 11.1559 32C11.1559 24.1567 7.28547 16.3761 1.70942 9.91324C-0.258583 7.65438 1.77504 5.96021 3.54624 8.15635C4.73857 9.74681 5.83374 11.4019 6.82627 13.1134C8.72867 6.71317 18.1751 1.12874 24.604 0.250295ZM22.5051 11.7954C25.3914 10.1013 34.1819 1.00305 25.9818 1.81876C21.2586 2.32073 15.5514 6.52474 13.1897 9.22284C16.4697 8.84635 19.8154 10.2268 22.5051 11.7954ZM13.1241 11.231C15.3544 11.0428 17.7818 12.1722 19.6185 13.3016C17.8473 14.1174 15.8793 14.6192 13.8457 14.7448C10.8281 14.7448 10.2377 11.482 13.1241 11.231ZM14.37 18.823C16.9941 21.6466 20.6021 24.4074 24.4725 25.4114C26.7029 25.9761 29.1957 25.7251 28.2773 22.6506C27.3588 19.827 24.9973 17.3171 22.7013 15.4347C22.0452 15.874 21.3236 16.3131 20.6021 16.627C18.6341 17.6936 16.5348 18.4466 14.37 18.823Z" fill="#F5A623"/>
</svg>
