<svg width="71" height="24" viewBox="0 0 71 24" fill="none" xmlns="http://www.w3.org/2000/svg">
<path d="M13.6905 11.2102C12.74 11.2102 11.9695 11.9808 11.9695 12.9313C11.9695 13.8817 12.74 14.6523 13.6905 14.6523H17.1167V18.789C15.9484 19.7048 14.1168 20.3048 11.9695 20.3048C7.16963 20.3048 4.20128 17.3996 4.20128 12.5997C4.20128 7.92612 7.10647 4.7683 11.4643 4.7683C13.1604 4.7683 14.6414 5.24463 15.8215 6.14369C16.6831 6.80005 17.8927 7.03595 18.7729 6.40474C19.6293 5.79052 19.861 4.58934 19.1067 3.85332C17.2595 2.05104 14.5863 1.0105 11.4643 1.0105C4.80127 0.947346 -0.093348 5.93669 0.00138642 12.5681C-0.093348 19.1364 4.67495 24.0626 11.8116 23.9994C14.8215 23.9994 17.5142 23.1784 19.4021 21.766C20.4705 20.9667 20.8745 19.6119 20.8745 18.2777V15.6628C20.8745 13.2037 18.8811 11.2102 16.422 11.2102H13.6905Z" fill="#00A365"/>
<path d="M38.9511 7.48402C37.9047 7.48402 37.0564 8.3323 37.0564 9.37871V10.0734C36.1406 8.17874 33.9933 7.04193 31.5618 7.04193C27.2987 7.04193 24.1725 10.5471 24.1725 15.5365C24.1725 20.4942 27.2987 23.9994 31.5618 23.9994C33.9933 23.9994 36.1406 22.8942 37.0564 20.9995V21.6626C37.0564 22.709 37.9047 23.5573 38.9511 23.5573C39.9975 23.5573 40.8458 22.709 40.8458 21.6626V9.37871C40.8458 8.33231 39.9975 7.48402 38.9511 7.48402ZM37.1511 15.5365C37.1511 18.4732 35.3827 20.4942 32.6354 20.4942C29.8881 20.4942 28.1198 18.4732 28.1198 15.5365C28.1198 12.5365 29.8881 10.5471 32.6354 10.5471C35.3827 10.5471 37.1511 12.5365 37.1511 15.5365Z" fill="#00A365"/>
<path d="M45.1542 2.39994C45.1542 3.78938 46.1331 4.79988 47.6173 4.79988C49.0383 4.79988 50.0488 3.78938 50.0488 2.39994C50.0488 1.0105 49.0383 0 47.6173 0C46.1331 0 45.1542 1.0105 45.1542 2.39994ZM45.691 21.631C45.691 22.6949 46.5535 23.5573 47.6173 23.5573C48.6811 23.5573 49.5436 22.6949 49.5436 21.631V9.41029C49.5436 8.34644 48.6811 7.48402 47.6173 7.48402C46.5535 7.48402 45.691 8.34644 45.691 9.41029V21.631Z" fill="#00A365"/>
<path d="M68.1239 7.48402C67.0775 7.48402 66.2292 8.33231 66.2292 9.37871V10.0734C65.3134 8.17874 63.1661 7.04193 60.7346 7.04193C56.4715 7.04193 53.3453 10.5471 53.3453 15.5365C53.3453 20.4942 56.4715 23.9994 60.7346 23.9994C63.1661 23.9994 65.3134 22.8942 66.2292 20.9995V21.6626C66.2292 22.709 67.0775 23.5573 68.1239 23.5573C69.1703 23.5573 70.0185 22.709 70.0185 21.6626V9.37872C70.0185 8.33231 69.1703 7.48402 68.1239 7.48402ZM66.3239 15.5365C66.3239 18.4732 64.5555 20.4942 61.8082 20.4942C59.0609 20.4942 57.2925 18.4732 57.2925 15.5365C57.2925 12.5365 59.0609 10.5471 61.8082 10.5471C64.5555 10.5471 66.3239 12.5365 66.3239 15.5365Z" fill="#00A365"/>
</svg>
