<svg width="48" height="48" viewBox="0 0 48 48" fill="none" xmlns="http://www.w3.org/2000/svg">
<path d="M24 0C28.3542 0 32.3698 1.07292 36.0469 3.21875C39.724 5.36458 42.6354 8.27604 44.7812 11.9531C46.9271 15.6302 48 19.6458 48 24C48 28.3542 46.9271 32.3698 44.7812 36.0469C42.6354 39.724 39.724 42.6354 36.0469 44.7812C32.3698 46.9271 28.3542 48 24 48C19.6458 48 15.6302 46.9271 11.9531 44.7812C8.27604 42.6354 5.36458 39.724 3.21875 36.0469C1.07292 32.3698 0 28.3542 0 24C0 19.6458 1.07292 15.6302 3.21875 11.9531C5.36458 8.27604 8.27604 5.36458 11.9531 3.21875C15.6302 1.07292 19.6458 0 24 0ZM32.5625 16.2812C32.5208 16.3021 32.4219 16.401 32.2656 16.5781C32.1094 16.7552 31.9688 16.8542 31.8438 16.875C31.8854 16.875 31.9323 16.8229 31.9844 16.7188C32.0365 16.6146 32.0885 16.5 32.1406 16.375C32.1927 16.25 32.2292 16.1771 32.25 16.1562C32.375 16.0104 32.6042 15.8542 32.9375 15.6875C33.2292 15.5625 33.7708 15.4375 34.5625 15.3125C35.2708 15.1458 35.8021 15.2604 36.1562 15.6562C36.1146 15.6146 36.2135 15.4792 36.4531 15.25C36.6927 15.0208 36.8438 14.8958 36.9062 14.875C36.9688 14.8333 37.125 14.7865 37.375 14.7344C37.625 14.6823 37.7812 14.6042 37.8438 14.5L37.9062 13.8125C37.6562 13.8333 37.474 13.7604 37.3594 13.5938C37.2448 13.4271 37.1771 13.2083 37.1562 12.9375C37.1562 12.9792 37.0938 13.0625 36.9688 13.1875C36.9688 13.0417 36.9219 12.9583 36.8281 12.9375C36.7344 12.9167 36.6146 12.9271 36.4688 12.9688C36.3229 13.0104 36.2292 13.0208 36.1875 13C35.9792 12.9375 35.8229 12.8594 35.7188 12.7656C35.6146 12.6719 35.5312 12.5 35.4688 12.25C35.4062 12 35.3646 11.8438 35.3438 11.7812C35.3021 11.6771 35.2031 11.5677 35.0469 11.4531C34.8906 11.3385 34.7917 11.2292 34.75 11.125C34.7292 11.0833 34.7031 11.026 34.6719 10.9531C34.6406 10.8802 34.6094 10.8125 34.5781 10.75C34.5469 10.6875 34.5052 10.6302 34.4531 10.5781C34.401 10.526 34.3438 10.5 34.2812 10.5C34.2188 10.5 34.1458 10.5521 34.0625 10.6562C33.9792 10.7604 33.901 10.8646 33.8281 10.9688C33.7552 11.0729 33.7083 11.125 33.6875 11.125C33.625 11.0833 33.5625 11.0677 33.5 11.0781C33.4375 11.0885 33.3906 11.099 33.3594 11.1094C33.3281 11.1198 33.2812 11.151 33.2188 11.2031C33.1562 11.2552 33.1042 11.2917 33.0625 11.3125C33 11.3542 32.9115 11.3854 32.7969 11.4062C32.6823 11.4271 32.5938 11.4479 32.5312 11.4688C32.8438 11.3646 32.8333 11.25 32.5 11.125C32.2917 11.0417 32.125 11.0104 32 11.0312C32.1875 10.9479 32.2656 10.8229 32.2344 10.6562C32.2031 10.4896 32.1146 10.3438 31.9688 10.2188H32.125C32.1042 10.1354 32.0156 10.0469 31.8594 9.95312C31.7031 9.85938 31.5208 9.77083 31.3125 9.6875C31.1042 9.60417 30.9688 9.54167 30.9062 9.5C30.7396 9.39583 30.3854 9.29688 29.8438 9.20312C29.3021 9.10938 28.9583 9.10417 28.8125 9.1875C28.7083 9.3125 28.6615 9.42188 28.6719 9.51562C28.6823 9.60938 28.724 9.75521 28.7969 9.95312C28.8698 10.151 28.9062 10.2812 28.9062 10.3438C28.9271 10.4688 28.8698 10.6042 28.7344 10.75C28.599 10.8958 28.5312 11.0208 28.5312 11.125C28.5312 11.2708 28.6771 11.4323 28.9688 11.6094C29.2604 11.7865 29.3646 12.0104 29.2812 12.2812C29.2188 12.4479 29.0521 12.6146 28.7812 12.7812C28.5104 12.9479 28.3438 13.0729 28.2812 13.1562C28.1771 13.3229 28.1615 13.5156 28.2344 13.7344C28.3073 13.9531 28.4167 14.125 28.5625 14.25C28.6042 14.2917 28.6198 14.3333 28.6094 14.375C28.599 14.4167 28.5625 14.4635 28.5 14.5156C28.4375 14.5677 28.3802 14.6094 28.3281 14.6406C28.276 14.6719 28.2083 14.7083 28.125 14.75L28.0312 14.8125C27.8021 14.9167 27.5885 14.8542 27.3906 14.625C27.1927 14.3958 27.0521 14.125 26.9688 13.8125C26.8229 13.2917 26.6562 12.9792 26.4688 12.875C25.9896 12.7083 25.6875 12.7188 25.5625 12.9062C25.4583 12.6354 25.0312 12.3646 24.2812 12.0938C23.7604 11.9062 23.1562 11.8646 22.4688 11.9688C22.5938 11.9479 22.5938 11.7917 22.4688 11.5C22.3229 11.1875 22.125 11.0625 21.875 11.125C21.9375 11 21.9792 10.8177 22 10.5781C22.0208 10.3385 22.0312 10.1979 22.0312 10.1562C22.0938 9.88542 22.2188 9.64583 22.4062 9.4375C22.4271 9.41667 22.5 9.32812 22.625 9.17188C22.75 9.01562 22.849 8.875 22.9219 8.75C22.9948 8.625 23 8.5625 22.9375 8.5625C23.6667 8.64583 24.1875 8.53125 24.5 8.21875C24.6042 8.11458 24.724 7.9375 24.8594 7.6875C24.9948 7.4375 25.1042 7.26042 25.1875 7.15625C25.375 7.03125 25.5208 6.97396 25.625 6.98438C25.7292 6.99479 25.8802 7.05208 26.0781 7.15625C26.276 7.26042 26.4271 7.3125 26.5312 7.3125C26.8229 7.33333 26.9844 7.21875 27.0156 6.96875C27.0469 6.71875 26.9688 6.51042 26.7812 6.34375C27.0312 6.36458 27.0625 6.1875 26.875 5.8125C26.7708 5.66667 26.6875 5.57292 26.625 5.53125C26.375 5.44792 26.0938 5.5 25.7812 5.6875C25.6146 5.77083 25.6354 5.85417 25.8438 5.9375C25.8229 5.91667 25.724 6.02604 25.5469 6.26562C25.3698 6.50521 25.1979 6.6875 25.0312 6.8125C24.8646 6.9375 24.6979 6.88542 24.5312 6.65625C24.5104 6.63542 24.4531 6.49479 24.3594 6.23438C24.2656 5.97396 24.1667 5.83333 24.0625 5.8125C23.8958 5.8125 23.7292 5.96875 23.5625 6.28125C23.625 6.11458 23.5104 5.95833 23.2188 5.8125C22.9271 5.66667 22.6771 5.58333 22.4688 5.5625C22.8646 5.3125 22.7812 5.03125 22.2188 4.71875C22.0729 4.63542 21.8594 4.58333 21.5781 4.5625C21.2969 4.54167 21.0938 4.58333 20.9688 4.6875C20.8646 4.83333 20.8073 4.95312 20.7969 5.04688C20.7865 5.14062 20.8385 5.22396 20.9531 5.29688C21.0677 5.36979 21.1771 5.42708 21.2812 5.46875C21.3854 5.51042 21.5052 5.55208 21.6406 5.59375C21.776 5.63542 21.8646 5.66667 21.9062 5.6875C22.1979 5.89583 22.2812 6.04167 22.1562 6.125C22.1146 6.14583 22.026 6.18229 21.8906 6.23438C21.7552 6.28646 21.6354 6.33333 21.5312 6.375C21.4271 6.41667 21.3646 6.45833 21.3438 6.5C21.2812 6.58333 21.2812 6.72917 21.3438 6.9375C21.4062 7.14583 21.3854 7.29167 21.2812 7.375C21.1771 7.27083 21.0833 7.08854 21 6.82812C20.9167 6.56771 20.8438 6.39583 20.7812 6.3125C20.9271 6.5 20.6667 6.5625 20 6.5L19.6875 6.46875C19.6042 6.46875 19.4375 6.48958 19.1875 6.53125C18.9375 6.57292 18.724 6.58333 18.5469 6.5625C18.3698 6.54167 18.2292 6.45833 18.125 6.3125C18.0417 6.14583 18.0417 5.9375 18.125 5.6875C18.1458 5.60417 18.1875 5.58333 18.25 5.625C18.1667 5.5625 18.0521 5.46354 17.9062 5.32812C17.7604 5.19271 17.6562 5.10417 17.5938 5.0625C16.6354 5.375 15.6562 5.80208 14.6562 6.34375C14.7812 6.36458 14.9062 6.35417 15.0312 6.3125C15.1354 6.27083 15.2708 6.20312 15.4375 6.10938C15.6042 6.01562 15.7083 5.95833 15.75 5.9375C16.4583 5.64583 16.8958 5.57292 17.0625 5.71875L17.2188 5.5625C17.5104 5.89583 17.7188 6.15625 17.8438 6.34375C17.6979 6.26042 17.3854 6.25 16.9062 6.3125C16.4896 6.4375 16.2604 6.5625 16.2188 6.6875C16.3646 6.9375 16.4167 7.125 16.375 7.25C16.2917 7.1875 16.1719 7.08333 16.0156 6.9375C15.8594 6.79167 15.7083 6.67708 15.5625 6.59375C15.4167 6.51042 15.2604 6.45833 15.0938 6.4375C14.7604 6.4375 14.5312 6.44792 14.4062 6.46875C11.3646 8.13542 8.91667 10.4479 7.0625 13.4062C7.20833 13.5521 7.33333 13.6354 7.4375 13.6562C7.52083 13.6771 7.57292 13.7708 7.59375 13.9375C7.61458 14.1042 7.64062 14.2188 7.67188 14.2812C7.70312 14.3438 7.82292 14.3125 8.03125 14.1875C8.21875 14.3542 8.25 14.5521 8.125 14.7812C8.14583 14.7604 8.60417 15.0417 9.5 15.625C9.89583 15.9792 10.1146 16.1979 10.1562 16.2812C10.2188 16.5104 10.1146 16.6979 9.84375 16.8438C9.82292 16.8021 9.72917 16.7083 9.5625 16.5625C9.39583 16.4167 9.30208 16.375 9.28125 16.4375C9.21875 16.5417 9.22396 16.7344 9.29688 17.0156C9.36979 17.2969 9.47917 17.4271 9.625 17.4062C9.47917 17.4062 9.38021 17.5729 9.32812 17.9062C9.27604 18.2396 9.25 18.6094 9.25 19.0156C9.25 19.4219 9.23958 19.6667 9.21875 19.75L9.28125 19.7812C9.21875 20.0312 9.27604 20.3906 9.45312 20.8594C9.63021 21.3281 9.85417 21.5312 10.125 21.4688C9.85417 21.5312 10.0625 21.9792 10.75 22.8125C10.875 22.9792 10.9583 23.0729 11 23.0938C11.0625 23.1354 11.1875 23.2135 11.375 23.3281C11.5625 23.4427 11.7188 23.5469 11.8438 23.6406C11.9688 23.7344 12.0729 23.8438 12.1562 23.9688C12.2396 24.0729 12.3438 24.3073 12.4688 24.6719C12.5938 25.0365 12.7396 25.2812 12.9062 25.4062C12.8646 25.5312 12.9635 25.7396 13.2031 26.0312C13.4427 26.3229 13.5521 26.5625 13.5312 26.75C13.5104 26.75 13.4844 26.7604 13.4531 26.7812C13.4219 26.8021 13.3958 26.8125 13.375 26.8125C13.4375 26.9583 13.599 27.1042 13.8594 27.25C14.1198 27.3958 14.2812 27.5312 14.3438 27.6562C14.3646 27.7188 14.3854 27.8229 14.4062 27.9688C14.4271 28.1146 14.4583 28.2292 14.5 28.3125C14.5417 28.3958 14.625 28.4167 14.75 28.375C14.7917 27.9583 14.5417 27.3125 14 26.4375C13.6875 25.9167 13.5104 25.6146 13.4688 25.5312C13.4062 25.4271 13.349 25.2656 13.2969 25.0469C13.2448 24.8281 13.1979 24.6771 13.1562 24.5938C13.1979 24.5938 13.2604 24.6094 13.3438 24.6406C13.4271 24.6719 13.5156 24.7083 13.6094 24.75C13.7031 24.7917 13.7812 24.8333 13.8438 24.875C13.9062 24.9167 13.9271 24.9479 13.9062 24.9688C13.8438 25.1146 13.8646 25.2969 13.9688 25.5156C14.0729 25.7344 14.1979 25.9271 14.3438 26.0938C14.4896 26.2604 14.6667 26.4583 14.875 26.6875C15.0833 26.9167 15.2083 27.0521 15.25 27.0938C15.375 27.2188 15.5208 27.4219 15.6875 27.7031C15.8542 27.9844 15.8542 28.125 15.6875 28.125C15.875 28.125 16.0833 28.2292 16.3125 28.4375C16.5417 28.6458 16.7188 28.8542 16.8438 29.0625C16.9479 29.2292 17.0312 29.5 17.0938 29.875C17.1562 30.25 17.2083 30.5 17.25 30.625C17.2917 30.7708 17.3802 30.9115 17.5156 31.0469C17.651 31.1823 17.7812 31.2812 17.9062 31.3438L18.4062 31.5938L18.8125 31.8125C18.9167 31.8542 19.1094 31.9635 19.3906 32.1406C19.6719 32.3177 19.8958 32.4375 20.0625 32.5C20.2708 32.5833 20.4375 32.625 20.5625 32.625C20.6875 32.625 20.8385 32.599 21.0156 32.5469C21.1927 32.4948 21.3333 32.4583 21.4375 32.4375C21.75 32.3958 22.0521 32.5521 22.3438 32.9062C22.6354 33.2604 22.8542 33.4792 23 33.5625C23.75 33.9583 24.3229 34.0729 24.7188 33.9062C24.6771 33.9271 24.6823 34.0052 24.7344 34.1406C24.7865 34.276 24.8698 34.4375 24.9844 34.625C25.099 34.8125 25.1927 34.9635 25.2656 35.0781C25.3385 35.1927 25.3958 35.2812 25.4375 35.3438C25.5417 35.4688 25.7292 35.625 26 35.8125C26.2708 36 26.4583 36.1562 26.5625 36.2812C26.6875 36.1979 26.7604 36.1042 26.7812 36C26.7188 36.1667 26.7917 36.375 27 36.625C27.2083 36.875 27.3958 36.9792 27.5625 36.9375C27.8542 36.875 28 36.5417 28 35.9375C27.3542 36.25 26.8438 36.0625 26.4688 35.375C26.4688 35.3542 26.4427 35.2969 26.3906 35.2031C26.3385 35.1094 26.2969 35.0208 26.2656 34.9375C26.2344 34.8542 26.2083 34.7656 26.1875 34.6719C26.1667 34.5781 26.1667 34.5 26.1875 34.4375C26.2083 34.375 26.2604 34.3438 26.3438 34.3438C26.5312 34.3438 26.6354 34.3073 26.6562 34.2344C26.6771 34.1615 26.6562 34.0312 26.5938 33.8438C26.5312 33.6562 26.4896 33.5208 26.4688 33.4375C26.4479 33.2708 26.3333 33.0625 26.125 32.8125C25.9167 32.5625 25.7917 32.4062 25.75 32.3438C25.6458 32.5312 25.4792 32.6146 25.25 32.5938C25.0208 32.5729 24.8542 32.4792 24.75 32.3125C24.75 32.3333 24.7344 32.3906 24.7031 32.4844C24.6719 32.5781 24.6562 32.6458 24.6562 32.6875C24.3854 32.6875 24.2292 32.6771 24.1875 32.6562C24.2083 32.5938 24.2344 32.4115 24.2656 32.1094C24.2969 31.8073 24.3333 31.5729 24.375 31.4062C24.3958 31.3229 24.4531 31.1979 24.5469 31.0312C24.6406 30.8646 24.7188 30.7135 24.7812 30.5781C24.8438 30.4427 24.8854 30.3125 24.9062 30.1875C24.9271 30.0625 24.8802 29.9635 24.7656 29.8906C24.651 29.8177 24.4688 29.7917 24.2188 29.8125C23.8229 29.8333 23.5521 30.0417 23.4062 30.4375C23.3854 30.5 23.3542 30.6094 23.3125 30.7656C23.2708 30.9219 23.2188 31.0417 23.1562 31.125C23.0938 31.2083 23 31.2812 22.875 31.3438C22.7292 31.4062 22.4792 31.4271 22.125 31.4062C21.7708 31.3854 21.5208 31.3333 21.375 31.25C21.1042 31.0833 20.8698 30.7812 20.6719 30.3438C20.474 29.9062 20.375 29.5208 20.375 29.1875C20.375 28.9792 20.401 28.7031 20.4531 28.3594C20.5052 28.0156 20.5365 27.7552 20.5469 27.5781C20.5573 27.401 20.5 27.1458 20.375 26.8125C20.4375 26.7708 20.5312 26.6719 20.6562 26.5156C20.7812 26.3594 20.8854 26.25 20.9688 26.1875C21.0104 26.1667 21.0573 26.151 21.1094 26.1406C21.1615 26.1302 21.2083 26.1302 21.25 26.1406C21.2917 26.151 21.3333 26.1354 21.375 26.0938C21.4167 26.0521 21.4479 25.9896 21.4688 25.9062C21.4479 25.8854 21.4062 25.8542 21.3438 25.8125C21.2812 25.75 21.2396 25.7188 21.2188 25.7188C21.3646 25.7812 21.6615 25.7656 22.1094 25.6719C22.5573 25.5781 22.8438 25.5938 22.9688 25.7188C23.2812 25.9479 23.5104 25.9271 23.6562 25.6562C23.6562 25.6354 23.6302 25.5365 23.5781 25.3594C23.526 25.1823 23.5208 25.0417 23.5625 24.9375C23.6667 25.5 23.9688 25.5938 24.4688 25.2188C24.5312 25.2812 24.6927 25.3333 24.9531 25.375C25.2135 25.4167 25.3958 25.4688 25.5 25.5312C25.5625 25.5729 25.6354 25.6302 25.7188 25.7031C25.8021 25.776 25.8594 25.8229 25.8906 25.8438C25.9219 25.8646 25.974 25.8594 26.0469 25.8281C26.1198 25.7969 26.2083 25.7292 26.3125 25.625C26.5208 25.9167 26.6458 26.1667 26.6875 26.375C26.9167 27.2083 27.1146 27.6667 27.2812 27.75C27.4271 27.8125 27.5417 27.8333 27.625 27.8125C27.7083 27.7917 27.7552 27.6927 27.7656 27.5156C27.776 27.3385 27.776 27.1927 27.7656 27.0781C27.7552 26.9635 27.7396 26.8333 27.7188 26.6875L27.6875 26.4375V25.875L27.6562 25.625C27.3438 25.5625 27.151 25.4375 27.0781 25.25C27.0052 25.0625 27.0208 24.8698 27.125 24.6719C27.2292 24.474 27.3854 24.2812 27.5938 24.0938C27.6146 24.0729 27.6979 24.0365 27.8438 23.9844C27.9896 23.9323 28.151 23.8646 28.3281 23.7812C28.5052 23.6979 28.6354 23.6146 28.7188 23.5312C29.1562 23.1354 29.3125 22.7708 29.1875 22.4375C29.3333 22.4375 29.4479 22.3438 29.5312 22.1562C29.5104 22.1562 29.4583 22.125 29.375 22.0625C29.2917 22 29.2135 21.9479 29.1406 21.9062C29.0677 21.8646 29.0208 21.8438 29 21.8438C29.1875 21.7396 29.2083 21.5729 29.0625 21.3438C29.1667 21.2812 29.2448 21.1667 29.2969 21C29.349 20.8333 29.4271 20.7292 29.5312 20.6875C29.7188 20.9375 29.9375 20.9583 30.1875 20.75C30.3333 20.5833 30.3438 20.4167 30.2188 20.25C30.3229 20.1042 30.5365 19.9948 30.8594 19.9219C31.1823 19.849 31.375 19.75 31.4375 19.625C31.5833 19.6667 31.6667 19.6458 31.6875 19.5625C31.7083 19.4792 31.7188 19.3542 31.7188 19.1875C31.7188 19.0208 31.75 18.8958 31.8125 18.8125C31.8958 18.7083 32.0521 18.6146 32.2812 18.5312C32.5104 18.4479 32.6458 18.3958 32.6875 18.375L33.2188 18.0312C33.2812 17.9479 33.2812 17.9062 33.2188 17.9062C33.5938 17.9479 33.9167 17.8333 34.1875 17.5625C34.3958 17.3333 34.3333 17.125 34 16.9375C34.0625 16.8125 34.0312 16.7135 33.9062 16.6406C33.7812 16.5677 33.625 16.5104 33.4375 16.4688C33.5 16.4479 33.6198 16.4427 33.7969 16.4531C33.974 16.4635 34.0833 16.4479 34.125 16.4062C34.4375 16.1979 34.3646 16.0312 33.9062 15.9062C33.5521 15.8021 33.1042 15.9271 32.5625 16.2812ZM27.4688 43.6875C31.7604 42.9375 35.4167 40.9688 38.4375 37.7812C38.375 37.7188 38.2448 37.6719 38.0469 37.6406C37.849 37.6094 37.7188 37.5729 37.6562 37.5312C37.2812 37.3854 37.0312 37.3021 36.9062 37.2812C36.9271 37.1354 36.901 37 36.8281 36.875C36.7552 36.75 36.6719 36.6562 36.5781 36.5938C36.4844 36.5312 36.3542 36.4479 36.1875 36.3438C36.0208 36.2396 35.9062 36.1667 35.8438 36.125C35.8021 36.0833 35.7292 36.0208 35.625 35.9375C35.5208 35.8542 35.4479 35.7969 35.4062 35.7656C35.3646 35.7344 35.2865 35.6875 35.1719 35.625C35.0573 35.5625 34.9688 35.5417 34.9062 35.5625C34.8438 35.5833 34.7396 35.5938 34.5938 35.5938L34.5 35.625C34.4375 35.6458 34.3802 35.6719 34.3281 35.7031C34.276 35.7344 34.2188 35.7656 34.1562 35.7969C34.0938 35.8281 34.0521 35.8594 34.0312 35.8906C34.0104 35.9219 34.0104 35.9479 34.0312 35.9688C33.5938 35.6146 33.2188 35.3854 32.9062 35.2812C32.8021 35.2604 32.6875 35.2031 32.5625 35.1094C32.4375 35.0156 32.3281 34.9427 32.2344 34.8906C32.1406 34.8385 32.0365 34.8229 31.9219 34.8438C31.8073 34.8646 31.6875 34.9375 31.5625 35.0625C31.4583 35.1667 31.3958 35.3229 31.375 35.5312C31.3542 35.7396 31.3333 35.875 31.3125 35.9375C31.1667 35.8333 31.1667 35.651 31.3125 35.3906C31.4583 35.1302 31.4792 34.9375 31.375 34.8125C31.3125 34.6875 31.2031 34.6406 31.0469 34.6719C30.8906 34.7031 30.7656 34.75 30.6719 34.8125C30.5781 34.875 30.4583 34.9635 30.3125 35.0781C30.1667 35.1927 30.0729 35.2604 30.0312 35.2812C29.9896 35.3021 29.901 35.3594 29.7656 35.4531C29.6302 35.5469 29.5417 35.625 29.5 35.6875C29.4375 35.7708 29.375 35.8958 29.3125 36.0625C29.25 36.2292 29.1979 36.3438 29.1562 36.4062C29.1146 36.3229 28.9948 36.2552 28.7969 36.2031C28.599 36.151 28.5 36.0938 28.5 36.0312C28.5417 36.2396 28.5833 36.6042 28.625 37.125C28.6667 37.6458 28.7188 38.0417 28.7812 38.3125C28.9271 38.9583 28.8021 39.4583 28.4062 39.8125C27.8438 40.3333 27.5417 40.75 27.5 41.0625C27.4167 41.5208 27.5417 41.7917 27.875 41.875C27.875 42.0208 27.7917 42.2344 27.625 42.5156C27.4583 42.7969 27.3854 43.0208 27.4062 43.1875C27.4062 43.3125 27.4271 43.4792 27.4688 43.6875Z" fill="#00A365"/>
</svg>
