<svg width="123" height="41" viewBox="0 0 123 41" fill="none" xmlns="http://www.w3.org/2000/svg">
<path d="M15.5496 0.42981H16.6393C20.4225 0.512053 24.144 2.03355 26.8169 4.727C25.8299 5.73448 24.8225 6.70083 23.8561 7.70831C22.3552 6.3513 20.5458 5.3027 18.572 4.93261C15.6524 4.31579 12.5066 4.87093 10.0599 6.53635C7.38696 8.28401 5.57762 11.2448 5.18697 14.4111C4.75519 17.5363 5.6393 20.8261 7.67481 23.2522C9.62809 25.6167 12.6094 27.0971 15.6935 27.1999C18.572 27.3644 21.5739 26.4803 23.6711 24.4653C25.3159 23.0466 26.0767 20.8877 26.3234 18.7905C22.9103 18.7905 19.4972 18.8111 16.0842 18.7905V14.555H30.4561C31.1963 19.099 30.1271 24.2186 26.6729 27.4672C24.3701 29.77 21.1832 31.127 17.9346 31.3943C14.7888 31.7027 11.5402 31.1064 8.74397 29.5849C5.39257 27.7962 2.71968 24.7737 1.40379 21.2167C0.170145 17.9476 0.149585 14.2466 1.30099 10.9569C2.34958 7.95504 4.36454 5.3027 6.95519 3.45224C9.44304 1.62233 12.4655 0.614856 15.5496 0.42981Z" fill="#3780FF"/>
<path d="M97.9981 1.49896H102.398V30.8597C100.938 30.8597 99.4579 30.8803 97.9981 30.8391C98.0187 21.0728 97.9981 11.2859 97.9981 1.49896Z" fill="#38B137"/>
<path d="M40.243 11.6765C42.9571 11.1625 45.8972 11.7382 48.1384 13.3625C50.1739 14.8018 51.5926 17.0634 52.0243 19.5307C52.5795 22.3887 51.8804 25.5139 50.03 27.7756C48.0356 30.3046 44.7664 31.6616 41.5795 31.456C38.6599 31.2915 35.8225 29.8317 34.0954 27.4466C32.1421 24.8148 31.6692 21.1962 32.7384 18.112C33.8075 14.8018 36.83 12.2728 40.243 11.6765ZM40.8599 15.5831C39.7496 15.8709 38.7215 16.5083 37.9814 17.413C35.987 19.798 36.1103 23.684 38.3103 25.9046C39.5645 27.1793 41.4561 27.7756 43.2038 27.4261C44.8281 27.1382 46.2468 26.0485 47.0281 24.6092C48.3851 22.1625 47.9944 18.7905 45.9178 16.8784C44.5814 15.6448 42.6281 15.1307 40.8599 15.5831Z" fill="#FA3913"/>
<path d="M62.0374 11.6765C65.1421 11.0803 68.5346 11.9438 70.858 14.1232C74.6411 17.5158 75.0524 23.869 71.8243 27.7756C69.8711 30.2429 66.7047 31.5999 63.5795 31.4559C60.5982 31.3737 57.658 29.8933 55.8898 27.4466C53.8954 24.7531 53.4636 21.0522 54.5944 17.9064C55.7253 14.6989 58.686 12.2522 62.0374 11.6765ZM62.6542 15.5831C61.544 15.8709 60.5159 16.5083 59.7757 17.3924C57.8019 19.7363 57.8842 23.5606 60.0019 25.8017C61.2561 27.1382 63.2094 27.7961 65.0187 27.426C66.6225 27.1176 68.0617 26.0485 68.843 24.6092C70.1795 22.1419 69.7888 18.77 67.6916 16.8578C66.3552 15.6242 64.4019 15.1307 62.6542 15.5831Z" fill="#FCBD06"/>
<path d="M80.5215 12.8691C82.886 11.3887 86.0318 10.9775 88.5813 12.2522C89.3832 12.6018 90.0411 13.198 90.6785 13.7943C90.6991 13.2392 90.6785 12.6635 90.6991 12.0878C92.0767 12.1083 93.4542 12.0878 94.8524 12.1083V30.2429C94.8318 32.9775 94.1327 35.8765 92.1589 37.8709C90 40.0709 86.6897 40.7494 83.7084 40.2971C80.5215 39.8242 77.7458 37.5008 76.5122 34.5606C77.7458 33.9644 79.0411 33.4915 80.3159 32.9364C81.0355 34.6223 82.4953 36.0616 84.3253 36.3906C86.1552 36.7195 88.2729 36.2672 89.4654 34.7457C90.7402 33.1831 90.7402 31.0448 90.6785 29.1326C89.7327 30.0578 88.643 30.8803 87.3271 31.1887C84.4692 31.9906 81.3234 31.0036 79.1234 29.0709C76.9028 27.1382 75.5869 24.1569 75.7103 21.1962C75.772 17.8448 77.6636 14.6167 80.5215 12.8691ZM84.7776 15.5008C83.5234 15.7065 82.3514 16.4055 81.5496 17.3719C79.6168 19.6747 79.6168 23.355 81.5701 25.6167C82.6804 26.9532 84.4692 27.6934 86.1963 27.5083C87.8206 27.3438 89.3215 26.3158 90.1234 24.8971C91.4804 22.4915 91.2542 19.2223 89.4243 17.1251C88.2935 15.8298 86.4841 15.1924 84.7776 15.5008Z" fill="#3780FF"/>
<path d="M107.682 13.9176C110.15 11.6148 113.953 10.8335 117.12 12.0466C120.122 13.1774 122.034 16.0354 123 18.9756C118.538 20.826 114.097 22.6559 109.636 24.5064C110.252 25.6784 111.198 26.7475 112.473 27.1793C114.262 27.8167 116.4 27.5905 117.901 26.398C118.497 25.9457 118.97 25.3494 119.422 24.7737C120.553 25.5344 121.684 26.2746 122.815 27.0354C121.211 29.441 118.518 31.127 115.619 31.3943C112.411 31.7849 108.998 30.5513 106.921 28.0429C103.508 24.0952 103.837 17.4746 107.682 13.9176ZM109.882 17.7214C109.183 18.7288 108.895 19.9625 108.916 21.1756C111.897 19.9419 114.879 18.7083 117.86 17.4541C117.366 16.3027 116.174 15.6036 114.961 15.4186C113.007 15.069 110.972 16.1176 109.882 17.7214Z" fill="#FA3913"/>
</svg>
