<svg width="48" height="48" viewBox="0 0 48 48" fill="none" xmlns="http://www.w3.org/2000/svg">
<path d="M19.2 30.8C19.2 32.4481 21.0815 33.3889 22.4 32.4L31.4667 25.6C32.5333 24.8 32.5333 23.2 31.4667 22.4L22.4 15.6C21.0815 14.6111 19.2 15.5519 19.2 17.2V30.8ZM24 0C10.74 0 0 10.74 0 24C0 37.26 10.74 48 24 48C37.26 48 48 37.26 48 24C48 10.74 37.26 0 24 0ZM24 43.2C13.416 43.2 4.8 34.584 4.8 24C4.8 13.416 13.416 4.8 24 4.8C34.584 4.8 43.2 13.416 43.2 24C43.2 34.584 34.584 43.2 24 43.2Z" fill="#333333"/>
</svg>
