<svg width="15" height="13" viewBox="0 0 15 13" fill="none" xmlns="http://www.w3.org/2000/svg">
<path d="M13.216 1.3666C12.4451 0.593658 11.4231 0.121899 10.3348 0.0365394C9.24646 -0.0488207 8.16348 0.257846 7.28147 0.901143C6.35612 0.212879 5.20437 -0.0992124 4.05814 0.0277156C2.9119 0.154644 1.85633 0.711163 1.10399 1.5852C0.351652 2.45925 -0.0415727 3.58589 0.00350283 4.73824C0.0485783 5.8906 0.528606 6.98308 1.34692 7.79569L5.86328 12.3193C6.24148 12.6915 6.75084 12.9001 7.28147 12.9001C7.81209 12.9001 8.32145 12.6915 8.69965 12.3193L13.216 7.79569C14.0652 6.94134 14.5418 5.78571 14.5418 4.58114C14.5418 3.37658 14.0652 2.22095 13.216 1.3666ZM12.1906 6.79205L7.67419 11.3084C7.6228 11.3603 7.56163 11.4015 7.49422 11.4296C7.42681 11.4577 7.3545 11.4722 7.28147 11.4722C7.20843 11.4722 7.13612 11.4577 7.06871 11.4296C7.0013 11.4015 6.94013 11.3603 6.88874 11.3084L2.37237 6.77023C1.80202 6.18721 1.48264 5.40403 1.48264 4.58842C1.48264 3.7728 1.80202 2.98962 2.37237 2.4066C2.95358 1.83277 3.73745 1.51101 4.55419 1.51101C5.37094 1.51101 6.15481 1.83277 6.73601 2.4066C6.80362 2.47476 6.88406 2.52887 6.97268 2.56579C7.06131 2.60271 7.15637 2.62172 7.25238 2.62172C7.34838 2.62172 7.44344 2.60271 7.53207 2.56579C7.62069 2.52887 7.70113 2.47476 7.76874 2.4066C8.34994 1.83277 9.13381 1.51101 9.95056 1.51101C10.7673 1.51101 11.5512 1.83277 12.1324 2.4066C12.7106 2.98198 13.0404 3.76092 13.0513 4.57655C13.0622 5.39218 12.7532 6.17964 12.1906 6.77023V6.79205Z" fill="#00A365"/>
</svg>
