<svg width="214" height="51" viewBox="0 0 214 51" fill="none" xmlns="http://www.w3.org/2000/svg">
<path d="M9.0572 0.110352L10.1472 2.16035C10.3845 2.53014 10.6607 2.87343 10.9712 3.18435C11.8842 4.09735 12.7532 5.05435 13.5312 6.07935C15.3792 8.50635 16.6262 11.2014 17.5172 14.1194C18.0512 15.9014 18.3412 17.7274 18.3632 19.5754C18.4532 25.0984 16.5592 29.8414 12.7292 33.7834C12.1086 34.4082 11.4384 34.9818 10.7252 35.4984C10.3452 35.4984 10.1682 35.1984 10.0122 34.9414C9.7122 34.4414 9.5442 33.8944 9.4552 33.3384C9.3212 32.6704 9.2322 32.0024 9.2772 31.3114V30.9994C9.2552 30.9324 8.9212 0.267352 9.0542 0.111352L9.0572 0.110352Z" fill="#599636"/>
<path d="M9.05719 0.0442611C9.01219 -0.0457389 8.96719 0.0222615 8.92319 0.0662615C8.94519 0.511261 8.78919 0.912261 8.54319 1.29126C8.27619 1.67126 7.91919 1.95926 7.56319 2.27126C5.58119 3.98626 4.02319 6.05726 2.77519 8.37326C1.12719 11.4913 0.25919 14.8313 0.0151897 18.3503C-0.0948103 19.6203 0.41519 24.0963 0.81719 25.3873C1.90719 28.8173 3.86719 31.6893 6.41719 34.1833C7.04119 34.7833 7.70919 35.3413 8.39919 35.8753C8.59919 35.8753 8.62219 35.6973 8.66619 35.5633C8.75393 35.2789 8.82078 34.9884 8.86619 34.6943C9.06619 33.5813 9.17819 32.4673 9.31119 31.3543L9.06619 0.0442611H9.05719Z" fill="#6CAC48"/>
<path d="M10.1502 36.8563C10.1952 36.3443 10.4502 35.9213 10.7072 35.4983C10.4402 35.3883 10.2392 35.1644 10.0832 34.9184C9.94924 34.6954 9.83824 34.4183 9.74924 34.1833C9.43724 33.2483 9.36924 32.2683 9.28124 31.3103V30.7303C9.17124 30.8203 9.14723 31.5763 9.14723 31.6883C9.08023 32.7123 8.94724 33.7153 8.74724 34.6943C8.68024 35.0943 8.63724 35.4963 8.39124 35.8523C8.39124 35.8973 8.39124 35.9423 8.41324 36.0083C8.81324 37.1883 8.92524 38.3913 8.99324 39.6163V40.0613C8.99324 40.5953 8.97124 40.4844 9.41624 40.6614C9.59424 40.7284 9.79624 40.7513 9.97324 40.8843C10.1072 40.8843 10.1292 40.7743 10.1292 40.6843L10.0622 39.9493V37.8993C10.0402 37.5433 10.1072 37.1863 10.1522 36.8523L10.1502 36.8563Z" fill="#C2BFBF"/>
<path d="M31.0833 30.9676V35.8791C31.0778 36.0736 31.0889 36.2682 31.1164 36.4608C31.1802 37.0425 31.5373 37.3972 32.0623 37.5604C32.5521 37.6893 33.0497 37.7865 33.552 37.8513C33.8429 37.8844 33.9398 38.0121 33.9729 38.3242C34.006 39.4238 33.9091 39.5538 32.8426 39.4876C30.3549 39.3576 27.8649 39.3268 25.3772 39.4876H25.1408C24.3651 39.5207 24.3013 39.4545 24.3013 38.6789C24.3013 38.5488 24.3344 38.388 24.3344 38.258C24.3344 38.0215 24.4952 37.9033 24.7222 37.9033C25.2425 37.8394 25.7248 37.7094 26.212 37.6124C26.8906 37.4516 27.2761 37.0307 27.3423 36.352C27.4369 35.6095 27.4369 34.8339 27.4369 34.089L27.47 25.4295C27.4807 25.1783 27.4196 24.9293 27.294 24.7116C27.1684 24.4938 26.9834 24.3163 26.7606 24.1998C26.1758 23.875 25.5573 23.6149 24.9161 23.4242C24.7222 23.3604 24.5283 23.3296 24.3675 23.2303C23.8946 23.0033 23.8827 22.5847 24.3344 22.3246C24.4952 22.23 24.6891 22.1638 24.883 22.1307C26.8442 21.8413 28.771 21.354 30.634 20.6764C31.0218 20.5464 31.1187 20.5818 31.1542 20.9673C31.1873 21.2037 31.1542 21.4875 31.1211 21.7098C31.0573 22.1307 31.0573 22.5493 31.0573 22.9394C31.0573 23.1002 31.0904 23.2634 31.2512 23.3604C31.412 23.4573 31.5751 23.3604 31.7241 23.2658C32.4028 22.7455 33.0814 22.2631 33.824 21.847C34.8881 21.2652 36.0231 20.7474 37.2528 20.5866C38.7425 20.3927 40.0313 20.7805 41.164 21.75C41.6323 22.1692 42.0448 22.6468 42.3913 23.1712C42.7152 23.6441 42.746 23.6559 43.1669 23.332C44.3965 22.4263 45.6877 21.6199 47.0781 21.0382C48.5324 20.4234 50.0198 20.3288 51.5048 20.8443C53.023 21.3929 54.0587 22.4594 54.6735 23.9137C55.1938 25.0771 55.4161 26.2784 55.4161 27.5317V36.1912C55.4161 36.773 55.6525 37.1371 56.2248 37.4209C56.8396 37.6574 57.5183 37.7756 58.1638 37.9056C58.5848 38.0002 58.5848 38.0002 58.5848 38.4259C58.5209 39.49 58.424 39.5562 57.3882 39.49C54.7946 39.3446 52.1949 39.3446 49.6013 39.49C49.081 39.5231 49.081 39.5231 49.0526 39.0052V38.8444C49.0195 37.9695 49.0195 37.9695 49.8614 37.7803L50.7008 37.5533C50.9852 37.4864 51.2388 37.3256 51.4207 37.097C51.6026 36.8683 51.7022 36.5851 51.7035 36.2929L51.7981 33.8691L51.7342 27.5364C51.7094 26.971 51.5895 26.4138 51.3795 25.8882C50.5708 23.9161 48.7949 23.2067 47.0805 23.4006C45.787 23.5306 44.6567 24.0461 43.5902 24.791C43.3632 24.9518 43.2024 25.1457 43.2355 25.4697C43.5263 27.5388 43.3301 29.6079 43.3655 31.6747V36.1676C43.3655 36.9763 43.6895 37.3641 44.4651 37.558L45.9549 37.882C46.1819 37.9151 46.3096 38.0121 46.3096 38.2698V38.5063C46.2765 39.412 46.215 39.4522 45.3069 39.4427C42.7223 39.3126 40.1353 39.3481 37.5838 39.4427C36.7089 39.4758 36.638 39.3789 36.6782 38.4968C36.7113 37.9766 36.7727 37.9482 37.2599 37.8513L38.324 37.6574C39.2699 37.4634 39.6175 37.1087 39.6813 36.1061L39.7759 33.94L39.7121 27.4442C39.6482 26.6355 39.4756 25.8598 39.0334 25.1173C38.3878 23.9208 37.3781 23.3083 35.9948 23.2421C34.6043 23.1475 33.377 23.663 32.2112 24.3062C31.4025 24.7792 31.0478 25.3396 31.1116 26.2784V30.996L31.0833 30.9676ZM91.9673 31.1639V35.7207C91.9724 36.0447 91.9938 36.3683 92.0311 36.6902C92.0449 36.9048 92.128 37.1091 92.2679 37.2724C92.4077 37.4357 92.5968 37.5492 92.8067 37.5959C93.3643 37.7584 93.9388 37.856 94.5188 37.8867C94.8427 37.9198 94.9066 38.0475 94.9397 38.3076V38.5347C94.9066 39.665 94.7789 39.795 93.6793 39.7312C91.22 39.5704 88.7678 39.6011 86.3109 39.7312L85.365 39.7643C85.1711 39.7643 85.1285 39.6697 85.0742 39.5373C84.9797 39.0898 84.9797 38.6275 85.0742 38.18C85.1073 37.986 85.235 37.9435 85.4289 37.8891C85.9018 37.8252 86.3038 37.7283 86.7531 37.6526C87.5618 37.4587 87.8527 37.1324 87.8834 36.2953L87.978 33.5806V25.6305C87.978 25.0488 87.751 24.6941 87.2355 24.4339C86.6538 24.11 86.0389 23.8853 85.391 23.6583C85.1971 23.5945 85.0032 23.5283 84.8424 23.4313C84.4215 23.1404 84.3695 22.7219 84.7786 22.3979C84.962 22.2471 85.1874 22.1563 85.4241 22.1378C87.4932 21.8138 89.4961 21.3622 91.4352 20.5866C91.6622 20.492 91.7592 20.5535 91.8561 20.7474C91.9531 20.9413 91.9862 21.1683 91.9507 21.3929L91.8561 22.9111C91.8561 23.105 91.7615 23.384 91.92 23.4597C92.1139 23.5897 92.2439 23.2989 92.4047 23.2232C93.3589 22.4228 94.4129 21.7495 95.5403 21.2203C96.543 20.7474 97.574 20.4447 98.7398 20.5109C100.906 20.641 102.457 21.7405 103.457 23.6465C103.978 24.6491 104.2 25.7463 104.297 26.879L104.391 29.2437L104.425 36.3851C104.458 36.9338 104.652 37.2908 105.2 37.4847C105.769 37.6743 106.353 37.8151 106.945 37.9056C107.466 37.9695 107.494 38.0664 107.527 38.5512V38.712C107.463 39.8116 107.397 39.8423 106.297 39.7761C103.886 39.6469 101.47 39.6469 99.059 39.7761C98.735 39.8092 98.4134 39.7761 98.1131 39.8092C97.9192 39.8092 97.7892 39.7761 97.7584 39.5822C97.6946 39.1613 97.6284 38.7428 97.7253 38.2887C97.7584 38.0948 97.8554 37.9979 98.08 37.9648L99.5698 37.7283C100.09 37.5982 100.379 37.2554 100.445 36.7824L100.509 35.8767L100.475 29.1231C100.475 28.3475 100.442 27.5719 100.282 26.7963C99.8937 25.141 98.6334 23.9586 96.9237 23.7931C95.4339 23.6323 94.086 24.0201 92.8517 24.8265C92.2368 25.2143 91.9767 25.7629 91.9767 26.4416V31.3223C91.9767 31.2277 91.9767 31.2277 92.0098 31.2277L91.9673 31.1639Z" fill="#47474A"/>
<path d="M186.617 22.0173C186.262 19.6574 185.387 17.5575 183.869 15.7154C182.546 14.0881 180.834 12.8209 178.891 12.0312C176.858 11.1917 174.689 10.9316 172.492 10.8678C171.587 10.8347 159.243 11.0286 158.337 10.8678C158.11 10.8347 157.95 10.9009 157.817 11.0948C157.656 11.3313 157.493 11.5795 157.396 11.8373C157.008 12.7122 157.008 12.646 157.945 12.7737C158.72 12.9038 159.463 12.9676 160.208 13.1946C160.887 13.4216 161.371 13.8095 161.532 14.552C161.596 14.9067 161.662 26.2809 161.662 31.5826L161.532 35.3661C161.499 35.6569 161.468 35.9478 161.371 36.2056C161.241 36.5934 161.017 36.915 160.629 37.0805C160.202 37.2813 159.742 37.4015 159.271 37.4352C158.396 37.5298 158.269 37.5653 157.978 38.5348L157.883 38.8895C157.819 39.3104 157.85 39.3743 158.271 39.3743L167.933 39.4688L171.717 39.405L174.335 39.081C177.307 38.5324 179.958 37.3028 182.218 35.333C183.51 34.1925 184.564 32.8088 185.321 31.261C186.227 29.452 186.614 27.4774 186.711 25.4769C186.872 24.3466 186.806 23.1831 186.617 22.0197V22.0173ZM181.93 26.6049C181.8 28.674 181.381 30.6769 180.315 32.4859C178.958 34.8458 177.019 36.494 174.337 37.0734C173.174 37.3099 172.01 37.4281 170.79 37.2673C169.915 37.1727 169.078 37.0734 168.269 36.7825C166.815 36.2623 166.297 35.3637 166.266 33.9449L166.233 14.4598C166.233 13.2963 166.753 13.0409 167.59 13.0055C168.851 12.9109 170.144 12.9416 171.405 13.0693C172.746 13.1991 174.063 13.5175 175.316 14.0152C176.247 14.4031 177.109 14.938 177.87 15.5995C179.615 17.0893 180.778 18.9574 181.417 21.1566C181.937 22.9348 182.032 24.7438 181.937 26.5528L181.93 26.6049ZM213.475 29.7736C213.475 29.5797 213.475 29.4189 213.442 29.225C213.151 27.4467 212.212 26.0894 210.76 25.056C209.824 24.3773 208.758 23.9257 207.658 23.6017C207.464 23.5378 207.303 23.4716 207.109 23.4409C207.142 23.2801 207.239 23.247 207.336 23.2139C207.982 22.8899 208.597 22.5352 209.145 22.0504C210.148 21.211 210.801 20.1752 211.148 18.9149C211.342 18.2362 211.342 17.5575 211.278 16.8457C211.226 16.0131 210.986 15.203 210.578 14.4755C210.169 13.7481 209.602 13.122 208.918 12.6437C207.429 11.5441 205.686 11.0924 203.877 11.0593C200.387 10.9955 196.865 11.0593 193.378 11.0593C192.375 11.0593 191.375 11.1232 190.339 10.9647C190.145 10.9316 189.866 10.8701 189.724 11.0948C189.488 11.5157 189.204 11.9342 189.109 12.419C189.076 12.646 189.142 12.7737 189.4 12.8068L191.63 13.1308C192.505 13.2608 193.12 13.7456 193.181 14.5212C193.245 15.0573 193.276 15.5966 193.276 16.1363L193.212 22.1781L193.179 34.1341C193.179 34.8435 193.084 35.5245 192.952 36.2339C192.92 36.4592 192.824 36.6704 192.675 36.8424C192.526 37.0144 192.331 37.1397 192.112 37.2035C191.467 37.3974 190.852 37.5913 190.173 37.5913C189.992 37.5741 189.81 37.619 189.658 37.7187C189.505 37.8183 189.391 37.9668 189.334 38.1399C189.204 38.4307 189.097 38.7547 189.043 39.0456C188.979 39.4334 189.076 39.5658 189.464 39.5185C189.755 39.4854 200.42 39.7455 202.423 39.5516C203.619 39.4215 204.787 39.2607 205.977 38.906C208.01 38.2605 209.888 37.3217 211.373 35.7373C212.603 34.4439 213.312 32.8926 213.376 31.0836C213.47 30.6627 213.47 30.2441 213.47 29.7901L213.475 29.7736ZM197.802 16.5312L197.896 13.9466C197.896 13.4618 198.09 13.2372 198.575 13.1379C199.351 12.9771 200.126 13.0433 200.902 13.074C201.678 13.1379 202.42 13.2348 203.196 13.4618C204.615 13.8828 205.717 14.6915 206.364 16.0465C206.658 16.6626 206.813 17.336 206.816 18.0186C206.849 18.9243 206.783 19.7969 206.428 20.6671C205.88 21.8636 205.01 22.6393 203.747 22.8663C202.484 23.0933 198.899 22.9963 198.35 22.9963C197.866 22.9963 197.83 22.9325 197.83 22.4477V19.4043C197.754 18.458 197.743 17.5075 197.797 16.5596L197.802 16.5312ZM208.301 33.9165C207.753 35.3708 206.75 36.3758 205.329 36.9197C204.553 37.2106 203.777 37.3926 202.964 37.3406C201.961 37.3075 200.961 37.3406 199.961 37.1467C198.604 36.8558 197.989 35.5624 197.892 34.6259C197.731 32.9777 197.828 31.2964 197.797 30.0692V25.8032C197.797 25.283 197.861 25.1246 198.412 25.1246L201.451 25.1577L203.52 25.3941C204.974 25.7181 206.298 26.2691 207.334 27.397C208.173 28.3027 208.627 29.3999 208.724 30.5965C208.819 31.7268 208.758 32.8264 208.337 33.8929L208.301 33.9165Z" fill="#C2BFBF"/>
<path d="M126.192 24.181L127.031 24.311C127.937 24.3441 129.003 24.0202 129.325 22.7598C129.502 22.1578 129.502 21.5173 129.325 20.9153C129.131 20.9153 129.034 21.0761 128.937 21.1423C128.452 21.5301 127.904 21.7571 127.322 21.821C126.158 21.951 124.995 21.8848 123.865 21.4663L122.28 20.9177C121.175 20.5558 120.013 20.4034 118.852 20.4684C117.203 20.5984 115.652 21.1471 114.198 21.9227C112.647 22.7621 111.549 24.0225 111.029 25.7369C110.738 26.7396 110.705 27.7706 110.835 28.8063C111.159 31.1663 112.386 32.8145 114.583 33.6871C114.713 33.7202 114.81 33.7817 114.938 33.8171C115.229 33.9779 115.262 34.1411 115.002 34.3657L114.193 34.9143L112.254 36.1109C111.769 36.4017 111.705 36.6311 111.866 37.1443C112.059 37.7479 112.417 38.2854 112.9 38.6955C113.343 39.076 113.845 39.3819 114.387 39.6012C114.742 39.762 114.742 39.8377 114.42 40.1214L112.576 41.4457C111.961 41.9186 111.346 42.3915 110.83 42.9969C110.472 43.3805 110.214 43.8467 110.078 44.354C109.943 44.8614 109.935 45.3943 110.055 45.9055C110.295 47.0273 110.883 48.0449 111.734 48.8141C112.574 49.5922 113.596 50.1475 114.706 50.4292C116.515 50.9494 118.39 50.9778 120.233 50.6231C122.881 50.1383 125.198 48.9678 127.019 46.972C128.28 45.6477 129.022 44.0965 129.088 42.2426C129.159 41.1704 128.847 40.1079 128.208 39.2441C127.569 38.3803 126.644 37.7711 125.598 37.525L123.853 37.201L118.521 36.7281C117.939 36.695 117.357 36.598 116.872 36.3072C116.257 35.9193 116.097 35.1768 116.484 34.6921C116.775 34.3374 117.13 34.1104 117.584 34.0772L118.617 33.9827C120.661 33.7747 122.58 32.9006 124.078 31.495C124.877 30.7547 125.449 29.8014 125.726 28.7472C126.114 27.3568 126.114 25.9096 125.79 24.4907C125.695 24.136 125.726 24.1029 126.177 24.1668L126.192 24.181ZM118.27 40.2775C118.464 40.3106 118.658 40.2775 118.852 40.2775C120.209 40.3413 121.599 40.4383 122.924 40.7977C123.356 40.9255 123.777 41.0876 124.184 41.2825C125.477 41.9919 125.962 43.2216 125.799 44.5458C125.605 46.0001 124.796 47.0334 123.536 47.7145C122.697 48.1874 121.758 48.3932 120.788 48.4901C120.434 48.5232 120.11 48.4901 119.755 48.4901C118.625 48.5232 117.525 48.3955 116.458 47.9415C115.716 47.6506 115.101 47.2321 114.553 46.648C113.422 45.5177 112.897 43.4486 114.586 41.7673C115.619 40.8214 116.785 40.1522 118.27 40.2775ZM121.954 30.1944C121.275 31.9065 119.788 32.4243 118.303 32.1973C116.946 32.0034 115.943 31.2609 115.3 30.0312C114.46 28.383 114.236 26.6734 114.718 24.8927C115.073 23.5685 115.881 22.5659 117.303 22.3389C119.112 22.0149 120.85 22.6628 121.763 24.4718C122.235 25.3468 122.441 26.4109 122.441 27.929C122.408 28.5438 122.28 29.3833 121.956 30.192L121.954 30.1944ZM81.2386 27.9952C80.9477 26.2501 80.3022 24.6657 79.1056 23.3415C77.3274 21.3693 75.0667 20.5039 72.5128 20.4968C70.2829 20.4637 68.1854 21.1116 66.3079 22.275C64.462 23.3796 63.1091 25.1489 62.5267 27.2196C61.9781 29.0948 62.0065 31.0031 62.4321 32.9067C63.5624 38.0145 67.5068 40.2089 72.222 39.8873C73.6124 39.7927 74.9367 39.3387 76.1947 38.7239C78.0699 37.8489 79.4272 36.4609 80.3637 34.6188C81.1062 33.1006 81.4278 31.4832 81.397 29.6411L81.2362 27.9929L81.2386 27.9952ZM76.6511 35.1697C76.42 35.8968 75.982 36.5408 75.3906 37.023C74.7993 37.5051 74.0803 37.8044 73.3216 37.8844C71.9028 38.0783 70.5738 37.7236 69.3796 36.8818C68.5175 36.2476 67.8195 35.4166 67.3436 34.458C66.0194 31.7433 65.7924 28.9009 66.4687 25.9923C66.6864 25.0922 67.1574 24.2732 67.826 23.6324C69.0226 22.5328 70.4106 22.275 71.9642 22.599C73.454 22.9229 74.582 23.7293 75.5113 24.959C76.4406 26.1886 76.8686 27.6074 77.1264 29.0972C77.2564 29.8397 77.2564 30.6153 77.2872 31.1001C77.2872 32.6513 77.1571 33.9377 76.6724 35.1721L76.6511 35.1697ZM151.849 28.2554C151.612 26.3801 150.912 24.6681 149.586 23.2469C147.84 21.341 145.577 20.5322 143.059 20.4991C140.893 20.466 138.89 21.0808 137.048 22.1473C134.979 23.377 133.558 25.1198 133.009 27.4797C132.354 30.0544 132.629 32.7777 133.785 35.1697C134.849 37.4328 136.66 38.887 139.053 39.5326C141.702 40.242 144.225 39.9204 146.679 38.7239C148.812 37.6905 150.33 36.0754 151.203 33.8762C151.723 32.5828 151.912 31.1947 151.946 29.5772C151.979 29.2864 151.912 28.7685 151.851 28.253L151.849 28.2554ZM147.389 34.7512C146.869 36.4963 145.774 37.6267 143.932 37.8868C142.574 38.0807 141.283 37.7567 140.117 36.9811C139.115 36.3024 138.405 35.3968 137.887 34.3326C137.306 33.2023 136.982 32.0058 136.854 30.7785C136.66 29.2603 136.66 27.7753 137.015 26.2548C137.082 25.955 137.18 25.6627 137.306 25.3822C138.211 23.1192 140.214 22.0858 142.574 22.6037C144.159 22.9584 145.353 23.8334 146.258 25.1576C147.133 26.4511 147.552 27.8723 147.748 29.4141C147.843 30.0289 147.878 30.6744 147.843 31.223C147.843 32.4834 147.748 33.6469 147.37 34.7772L147.389 34.7512Z" fill="#47474A"/>
</svg>
