<svg width="119" height="33" viewBox="0 0 119 33" fill="none" xmlns="http://www.w3.org/2000/svg">
<path d="M16.8678 30.3672C15.0866 30.68 13.2741 30.7737 11.3992 31.0235L5.68028 14.2736V31.7424C3.89909 31.9298 2.27413 32.1798 0.586609 32.4298V0.42981H5.33674L11.8366 18.5863V0.42981H16.8678V30.3672ZM26.7116 12.1486C28.6493 12.1486 31.618 12.0548 33.3992 12.0548V17.0547C31.1803 17.0547 28.5867 17.0547 26.7116 17.1485V24.5861C29.6492 24.3986 32.5867 24.1484 35.5553 24.0546V28.8669L21.7115 29.9609V0.42981H35.5553V5.42982H26.7116V12.1486ZM54.149 5.42993H48.9616V28.4299C47.2741 28.4299 45.5866 28.4299 43.9618 28.4922V5.42993H38.7744V0.42981H54.1493L54.149 5.42993ZM62.274 11.8049H69.1179V16.8048H62.274V28.1487H57.3674V0.42981H71.3366V5.42982H62.274V11.8049ZM79.4615 23.7735C82.3054 23.8359 85.1802 24.055 87.9616 24.211V29.1485C83.4929 28.8671 79.0241 28.5862 74.4616 28.4922V0.42981H79.4615V23.7735ZM92.1803 29.4923C93.774 29.5862 95.4615 29.68 97.0865 29.8672V0.42981H92.1803V29.4923ZM118.993 0.42981L112.649 15.6486L118.993 32.4298C117.118 32.1798 115.243 31.836 113.368 31.5235L109.774 22.2737L106.118 30.7737C104.305 30.461 102.555 30.3672 100.743 30.1172L107.181 15.4609L101.368 0.42981H106.743L110.024 8.83608L113.524 0.42981H118.993Z" fill="#FF0000"/>
</svg>
