<svg width="175" height="41" viewBox="0 0 175 41" fill="none" xmlns="http://www.w3.org/2000/svg">
<path fill-rule="evenodd" clip-rule="evenodd" d="M29.3864 39.6882C27.312 39.6882 26.1265 38.0588 26.1265 36.282V19.3941C26.1265 13.6168 24.0521 11.9873 20.3492 11.9873C16.6464 11.9873 14.128 14.654 14.128 20.283V39.6892H3.46035C1.68257 39.6892 0.349731 38.2081 0.349731 36.4313V1.17236H9.83088C12.3492 1.17236 13.5348 2.95014 13.5348 4.5796V5.91343C16.942 2.35788 20.4976 0.431786 25.8309 0.431786C28.9415 0.431786 32.0531 1.17335 34.4231 2.6545C39.0159 5.6178 39.9038 10.8018 39.9038 15.098V39.6892H29.3864V39.6882ZM48.4961 39.6882C46.57 39.6882 45.2371 38.2071 45.2371 36.282V1.17236H55.6072C57.6806 1.17236 59.0134 2.80182 59.0134 4.43129V39.6892H48.4961V39.6882ZM90.7158 11.6907C90.1226 12.8752 89.6786 13.6168 88.6414 13.6168C87.7525 13.6168 86.568 13.0245 85.2342 13.0245C80.6414 13.0245 78.568 15.6912 78.568 20.5786V39.6892H67.9033C65.8289 39.6892 64.7927 37.9124 64.7927 36.283V1.17236H74.2738C76.6439 1.17236 77.8294 2.95014 77.8294 4.5796V6.06076C80.94 2.65351 84.6439 0.875734 89.6806 0.875734C91.3101 0.875734 93.2362 1.17236 94.4217 1.61631L90.7158 11.6907ZM129.53 24.2815H106.568C106.716 28.1337 109.383 30.652 114.717 30.652C118.419 30.652 121.085 29.1709 123.308 27.3921C123.901 26.9482 124.494 26.5042 125.233 26.5042C126.27 26.5042 126.714 27.0975 127.308 27.8371L132.049 33.466C128.049 37.3182 122.567 40.4298 113.975 40.4298C101.679 40.4298 92.7902 34.0593 92.7902 20.4293C92.7902 8.57812 100.642 0.42981 113.086 0.42981C125.975 0.42981 132.937 8.72544 132.937 19.8361V20.8733C132.938 22.8003 131.9 24.2815 129.53 24.2815ZM113.086 9.91293C109.531 9.91293 106.864 12.4313 106.567 16.5791H119.455C119.16 12.283 116.791 9.91293 113.086 9.91293ZM160.789 39.6882C159.752 39.6882 158.42 39.5419 157.678 38.3554L152.344 29.0226L146.27 39.6882H134.419C133.235 39.6882 132.344 38.9487 132.344 38.0588C132.344 37.7631 132.493 37.3192 132.788 37.0216L144.789 19.3931L132.198 1.17137H145.382C146.863 1.17137 148.049 1.91195 148.642 2.94915L152.641 10.0593L157.974 1.17137H169.235C170.418 1.17137 171.309 1.91195 171.309 2.80083C171.309 3.09647 171.309 3.54141 171.011 3.98635L160.196 19.5404L174.122 39.6872H160.789V39.6882Z" fill="#365E49"/>
</svg>
