<svg width="177" height="39" viewBox="0 0 177 39" fill="none" xmlns="http://www.w3.org/2000/svg">
<rect width="177" height="39" rx="19.5" fill="#007BFF" fill-opacity="0.12"/>
<path d="M24.5 31.4997C24.0746 31.5064 23.655 31.4014 23.2828 31.1954L22.9177 30.9885C20.0735 29.3794 17.7074 27.0443 16.0608 24.2216C14.4143 21.399 13.5463 18.1899 13.5456 14.9221V14.7517C13.5418 14.3207 13.6524 13.8964 13.8663 13.5222C14.0801 13.1479 14.3895 12.8372 14.7628 12.6217L23.2828 7.82613C23.6529 7.61248 24.0727 7.5 24.5 7.5C24.9273 7.5 25.3471 7.61248 25.7171 7.82613L34.2372 12.6217C34.6105 12.8372 34.9198 13.1479 35.1337 13.5222C35.3475 13.8964 35.4582 14.3207 35.4543 14.7517V14.9221C35.4512 18.1923 34.5796 21.403 32.9286 24.2259C31.2777 27.0487 28.9066 29.3825 26.0579 30.9885L25.6928 31.1954C25.3278 31.3974 24.9171 31.5021 24.5 31.4997Z" fill="#007BFF"/>
<path d="M54.8125 15.486C54.8125 12.876 53.2105 11.4 50.2765 11.4H45.0385V24H47.3245V19.572H50.2765C53.2285 19.572 54.8125 18.132 54.8125 15.486ZM52.4185 15.486C52.4185 16.872 51.7705 17.502 50.1325 17.502H47.3245V13.506H50.1325C51.7705 13.506 52.4185 14.1 52.4185 15.486ZM62.5331 14.802C62.2991 14.712 62.0291 14.676 61.7411 14.676C60.4991 14.676 59.4911 15.306 59.0411 16.368V14.838H56.8811V24H59.0771V19.482C59.0771 17.61 59.8871 16.764 61.5251 16.764C61.8131 16.764 62.1551 16.8 62.5331 16.854V14.802ZM63.389 19.428C63.389 22.092 65.351 24.252 68.213 24.252C71.129 24.252 73.037 22.092 73.037 19.428C73.037 16.746 71.129 14.586 68.213 14.586C65.351 14.586 63.389 16.746 63.389 19.428ZM70.787 19.428C70.787 21.102 69.779 22.254 68.213 22.254C66.647 22.254 65.639 21.102 65.639 19.428C65.639 17.718 66.647 16.584 68.213 16.584C69.779 16.584 70.787 17.718 70.787 19.428ZM75.7953 21.318C75.7953 23.262 76.7673 24.144 78.8373 24.144C79.4673 24.144 80.0613 24.054 80.6193 23.892V22.038C80.2053 22.128 79.7553 22.182 79.3053 22.182C78.3693 22.182 77.9913 21.876 77.9913 21.03V16.764H80.5833V14.838H77.9913V12.138H75.7953V14.838H74.0673V16.764H75.7953V21.318ZM90.9528 20.076C90.9888 19.788 91.0068 19.5 91.0068 19.23C91.0068 16.44 89.1888 14.586 86.5428 14.586C83.7888 14.586 81.8988 16.62 81.8988 19.464C81.8988 22.326 83.8428 24.252 86.7588 24.252C88.4328 24.252 89.8368 23.622 90.7008 22.488L89.3868 21.192C88.7208 21.966 87.8748 22.344 86.8308 22.344C85.3188 22.344 84.3648 21.534 84.1308 20.076H90.9528ZM84.1308 18.582C84.3648 17.268 85.2108 16.494 86.5608 16.494C87.8748 16.494 88.7208 17.232 88.8108 18.582H84.1308ZM92.5512 19.428C92.5512 22.254 94.4772 24.252 97.3212 24.252C99.0672 24.252 100.507 23.496 101.281 22.182L99.6252 21.012C99.1032 21.822 98.3112 22.254 97.3752 22.254C95.8092 22.254 94.8012 21.138 94.8012 19.428C94.8012 17.7 95.8092 16.602 97.3752 16.602C98.3652 16.602 99.1032 17.016 99.6252 17.826L101.281 16.656C100.507 15.36 99.0672 14.586 97.3212 14.586C94.4772 14.586 92.5512 16.584 92.5512 19.428ZM103.973 21.318C103.973 23.262 104.945 24.144 107.015 24.144C107.645 24.144 108.239 24.054 108.797 23.892V22.038C108.383 22.128 107.933 22.182 107.483 22.182C106.547 22.182 106.169 21.876 106.169 21.03V16.764H108.761V14.838H106.169V12.138H103.973V14.838H102.245V16.764H103.973V21.318ZM119.131 20.076C119.167 19.788 119.185 19.5 119.185 19.23C119.185 16.44 117.367 14.586 114.721 14.586C111.967 14.586 110.077 16.62 110.077 19.464C110.077 22.326 112.021 24.252 114.937 24.252C116.611 24.252 118.015 23.622 118.879 22.488L117.565 21.192C116.899 21.966 116.053 22.344 115.009 22.344C113.497 22.344 112.543 21.534 112.309 20.076H119.131ZM112.309 18.582C112.543 17.268 113.389 16.494 114.739 16.494C116.053 16.494 116.899 17.232 116.989 18.582H112.309ZM128.037 10.824V16.242C127.479 15.216 126.309 14.586 124.941 14.586C122.511 14.586 120.729 16.584 120.729 19.428C120.729 22.254 122.511 24.252 124.941 24.252C126.327 24.252 127.551 23.622 128.073 22.542V24H130.233V10.824H128.037ZM128.127 19.428C128.127 21.102 127.119 22.254 125.553 22.254C123.987 22.254 122.979 21.102 122.979 19.428C122.979 17.718 123.987 16.584 125.553 16.584C127.119 16.584 128.127 17.718 128.127 19.428ZM146.524 19.428C146.524 16.584 144.742 14.586 142.312 14.586C140.944 14.586 139.774 15.216 139.216 16.242V10.824H137.02V24H139.18V22.542C139.702 23.622 140.926 24.252 142.312 24.252C144.742 24.252 146.524 22.254 146.524 19.428ZM144.274 19.428C144.274 21.102 143.266 22.254 141.7 22.254C140.134 22.254 139.126 21.102 139.126 19.428C139.126 17.718 140.134 16.584 141.7 16.584C143.266 16.584 144.274 17.754 144.274 19.428ZM154.614 14.838V19.77C154.614 21.084 153.75 21.912 152.4 21.912C151.23 21.912 150.672 21.282 150.672 19.896V14.838H148.476V20.454C148.476 22.668 149.682 23.91 151.644 23.91C152.994 23.91 154.11 23.298 154.632 22.29V23.082C154.632 24.9 153.642 25.89 151.932 25.89C150.942 25.89 149.952 25.566 149.178 24.972L148.188 26.574C149.052 27.384 150.492 27.852 152.058 27.852C155.082 27.852 156.792 26.16 156.792 23.082V14.838H154.614ZM159.214 22.722C159.214 23.604 159.79 24.198 160.672 24.198C161.554 24.198 162.13 23.604 162.13 22.722C162.13 21.84 161.554 21.264 160.672 21.264C159.79 21.264 159.214 21.84 159.214 22.722ZM159.214 16.422C159.214 17.304 159.79 17.898 160.672 17.898C161.554 17.898 162.13 17.304 162.13 16.422C162.13 15.54 161.554 14.964 160.672 14.964C159.79 14.964 159.214 15.54 159.214 16.422Z" fill="#007BFF"/>
</svg>
