<svg width="77" height="32" viewBox="0 0 77 32" fill="none" xmlns="http://www.w3.org/2000/svg">
<path d="M5.40453 12.5394C5.40453 11.7064 6.08809 11.3858 7.22046 11.3858C8.84383 11.3858 10.8945 11.8773 12.518 12.7531V7.73294C10.7451 7.02805 8.99343 6.75033 7.22046 6.75033C2.88386 6.75033 0 9.01476 0 12.7959C0 18.6916 8.11746 17.7518 8.11746 20.2939C8.11746 21.2764 7.26311 21.5969 6.06676 21.5969C4.29379 21.5969 2.02936 20.8706 0.234914 19.8879V24.9721C2.22162 25.8266 4.22966 26.1896 6.06676 26.1896C10.51 26.1896 13.5648 23.9895 13.5648 20.1657C13.5435 13.7999 5.40453 14.9319 5.40453 12.5394ZM19.8451 2.47801L14.6329 3.58875L14.6115 20.6996C14.6115 23.8614 16.9828 26.1896 20.1443 26.1896C21.896 26.1896 23.1776 25.8692 23.8825 25.4847V21.1483C23.1991 21.426 19.8238 22.4086 19.8238 19.247V11.6635H23.8825V7.11351H19.8238L19.8451 2.47801ZM30.5262 8.69423L30.1844 7.11351H25.5702V25.8051H30.9107V13.1376C32.1709 11.4928 34.3072 11.7918 34.9695 12.0267V7.11351C34.2859 6.85712 31.7866 6.38714 30.5262 8.69423ZM36.2725 7.11351H41.6343V25.8051H36.2725V7.11351ZM36.2725 5.48999L41.6343 4.33645V0L36.2725 1.13221V5.48984V5.48999ZM52.7852 6.75033C50.6917 6.75033 49.3459 7.73294 48.5984 8.41666L48.3205 7.09219H43.621V32L48.9614 30.8679L48.9829 24.8225C49.7519 25.3779 50.884 26.1683 52.7639 26.1683C56.5877 26.1683 60.0697 23.0922 60.0697 16.3205C60.0484 10.1255 56.5236 6.75033 52.7852 6.75033ZM51.5036 21.4687C50.2433 21.4687 49.4954 21.0202 48.9829 20.4647L48.9614 12.5394C49.5169 11.9199 50.2859 11.4928 51.5036 11.4928C53.4475 11.4928 54.7933 13.6716 54.7933 16.47C54.7933 19.3325 53.4688 21.4687 51.5036 21.4687ZM76.9029 16.5341C76.9029 11.0654 74.2539 6.75033 69.1912 6.75033C64.1069 6.75033 61.0308 11.0656 61.0308 16.4915C61.0308 22.9213 64.6625 26.1683 69.8747 26.1683C72.4168 26.1683 74.3394 25.5915 75.792 24.7798V20.5074C74.3395 21.2337 72.6732 21.6824 70.5584 21.6824C68.4862 21.6824 66.6491 20.956 66.4142 18.4354H76.8602C76.8602 18.1575 76.9029 17.0467 76.9029 16.5341ZM66.35 14.5047C66.35 12.0909 67.8241 11.0868 69.1699 11.0868C70.4729 11.0868 71.8615 12.0909 71.8615 14.5047H66.35Z" fill="#6772E5"/>
</svg>
