<svg width="181" height="41" viewBox="0 0 181 41" fill="none" xmlns="http://www.w3.org/2000/svg">
<path d="M176.725 0.490275C178.112 0.417287 179.498 0.417287 180.885 0.453781C176.725 9.13936 172.711 17.8979 168.66 26.62H165.266C163.405 22.2407 161.215 17.9709 159.281 13.5916C160.631 13.5551 161.981 13.5551 163.332 13.5916C164.499 16.2922 165.886 18.8833 166.945 21.5838C170.192 14.5405 173.55 7.53362 176.725 0.490275Z" fill="#FF0000"/>
<path d="M72.2425 4.21265C74.9066 4.24914 77.6071 4.24914 80.2712 4.21265C80.2347 6.58476 80.2347 8.99337 80.2712 11.3655C77.6071 11.329 74.9066 11.3655 72.206 11.329C72.279 8.95687 72.206 6.58476 72.2425 4.21265ZM31.8436 14.431C37.3177 11.329 45.2734 12.3873 48.9593 17.7519C51.2219 20.9269 51.8788 24.9413 51.8423 28.7366C45.5654 28.7731 39.2884 28.7366 33.0114 28.7731C33.3034 30.7073 34.1427 32.751 35.9309 33.7728C38.4855 35.2691 42.4999 34.8311 43.7772 31.8751C46.3682 31.8021 48.9228 31.8021 51.5139 31.8751C50.711 34.8311 48.5579 37.3492 45.8573 38.736C42.9378 40.3417 39.4344 40.6337 36.1864 40.0863C32.756 39.5389 29.581 37.6047 27.6468 34.7217C25.5301 31.6562 24.9827 27.7513 25.4571 24.1384C25.9316 20.1605 28.3037 16.4017 31.8436 14.431ZM36.1134 18.9927C34.3252 19.8321 33.4493 21.7663 33.0479 23.6275H43.7772C43.5582 22.2042 43.0473 20.708 41.9525 19.7226C40.4197 18.2264 37.9746 18.1899 36.1134 18.9927ZM115.999 13.0442C120.305 12.2778 125.086 13.1902 128.407 16.1827C134.063 21.2189 134.319 30.9628 129.064 36.3639C124.903 40.7067 117.933 41.5096 112.605 39.0645C108.481 37.2033 105.671 33.0064 105.197 28.5542C105.014 25.9631 105.124 23.299 106.182 20.8904C107.788 16.7666 111.693 13.7741 115.999 13.0442ZM116.911 18.9927C114.649 19.7956 113.59 22.2407 113.262 24.4668C113.006 27.2404 113.043 30.3789 114.831 32.678C116.765 35.1961 121.035 35.1231 122.969 32.6415C124.575 30.6343 124.83 27.8973 124.648 25.4157C124.538 23.226 123.772 20.8904 121.947 19.5401C120.488 18.5548 118.553 18.4088 116.911 18.9927ZM144.647 14.5405C147.311 12.4603 151.106 12.2413 154.172 13.4821C156.361 14.431 158.003 16.3652 158.77 18.5913C159.646 20.8904 159.39 23.372 159.39 25.7806C159.39 30.3789 159.354 34.9771 159.427 39.5389C156.763 39.5754 154.099 39.5389 151.398 39.5754V23.8099C151.398 22.4597 150.887 20.9999 149.756 20.1605C148.041 18.9927 145.559 19.2117 144.099 20.6715C142.931 21.8393 142.421 23.518 142.457 25.1237V39.5754C139.829 39.5389 137.165 39.5754 134.538 39.5389C134.538 30.8533 134.574 22.1677 134.538 13.4821C137.129 13.5186 139.683 13.4456 142.275 13.5186C142.238 14.7229 142.238 15.9272 142.202 17.1315C143.004 16.2557 143.661 15.2703 144.647 14.5405ZM0.203278 13.5551H8.52392C10.2026 19.1387 11.9909 24.7223 13.5601 30.3424C15.4943 24.8318 16.954 19.1387 18.7787 13.5551C21.4428 13.5186 24.1434 13.5551 26.8074 13.5186C23.7419 22.2042 20.7494 30.8898 17.7204 39.5754C14.9469 39.5754 12.1733 39.5389 9.39978 39.6119C6.22479 30.9628 3.41475 22.1677 0.203278 13.5551ZM53.667 13.5186H61.3308C61.2943 14.9784 61.3308 16.4382 61.2578 17.8979C61.9147 17.168 62.3891 16.2557 63.0825 15.5623C64.7977 13.6646 67.6078 12.8982 70.0894 13.5551C70.0529 15.8542 70.0529 18.1534 70.0894 20.416C68.1187 20.197 65.929 20.27 64.2503 21.4743C62.4621 22.7151 61.6592 25.0142 61.6957 27.1309C61.6592 31.2912 61.6957 35.4151 61.6957 39.5754C59.0317 39.5754 56.3311 39.5389 53.667 39.6119C53.7035 30.8898 53.7035 22.2042 53.667 13.5186ZM72.2425 13.5551C74.9431 13.5186 77.6071 13.5551 80.3077 13.5186C80.2712 22.2042 80.3077 30.8898 80.3077 39.5754C77.6436 39.5389 74.9431 39.5754 72.2425 39.5754V13.5551ZM82.4608 13.5186C89.7232 13.5551 96.9855 13.5186 104.211 13.5551C104.138 15.5623 104.211 17.533 104.175 19.5401C103.919 20.0511 103.481 20.416 103.153 20.8539C99.4306 24.9778 95.7812 29.2111 91.9858 33.2984C96.2556 33.3714 100.525 33.2984 104.795 33.3349V39.6119C97.3504 39.5754 89.9056 39.5754 82.4608 39.6119V33.5539C86.3657 29.1746 90.2341 24.8318 94.1754 20.489C94.2849 20.27 94.7593 20.0511 94.5039 19.7591C90.4895 19.8686 86.4752 19.7591 82.4608 19.8321V13.5186Z" fill="black"/>
</svg>
