<svg width="1440" height="549" viewBox="0 0 1440 549" fill="none" xmlns="http://www.w3.org/2000/svg">
<g opacity="0.27">
<path d="M-127.16 358.335C-89.158 334.932 73.0653 150.713 681.232 254.088C1289.4 357.463 1456.52 278.786 1529.25 105.735" stroke="url(#paint0_linear_9_459)" stroke-width="0.773742" stroke-miterlimit="10"/>
<path d="M-126.838 351.903C-90.6437 329.601 75.8704 154.565 678.983 260.366C1282.1 366.168 1453.64 265.074 1522.96 100.231" stroke="url(#paint1_linear_9_459)" stroke-width="0.773742" stroke-miterlimit="10"/>
<path d="M-126.484 345.476C-92.1029 324.291 78.6589 158.494 676.8 266.92C1274.94 375.345 1450.89 251.877 1516.74 95.2737" stroke="url(#paint2_linear_9_459)" stroke-width="0.773742" stroke-miterlimit="10"/>
<path d="M-126.13 339.043C-93.5544 318.972 81.4403 162.424 674.616 273.466C1267.79 384.508 1448.14 238.674 1510.52 90.3169" stroke="url(#paint3_linear_9_459)" stroke-width="0.773742" stroke-miterlimit="10"/>
<path d="M-125.777 332.608C-95.0149 313.652 84.2277 166.343 672.431 280.003C1260.63 393.662 1445.39 225.461 1504.31 85.3427" stroke="url(#paint4_linear_9_459)" stroke-width="0.773742" stroke-miterlimit="10"/>
<path d="M-125.431 326.183C-96.4739 308.342 87.0095 170.281 670.232 286.558C1253.45 402.835 1442.63 212.267 1498.08 80.3948" stroke="url(#paint5_linear_9_459)" stroke-width="0.773742" stroke-miterlimit="10"/>
<path d="M-125.077 319.747C-97.9337 303.021 89.7984 174.208 668.048 293.102C1246.3 411.996 1439.88 199.061 1491.86 75.4278" stroke="url(#paint6_linear_9_459)" stroke-width="0.773742" stroke-miterlimit="10"/>
<path d="M-124.724 313.314C-99.3859 297.702 92.5862 178.129 665.863 299.64C1239.14 421.152 1437.13 185.85 1485.64 70.4632" stroke="url(#paint7_linear_9_459)" stroke-width="0.773742" stroke-miterlimit="10"/>
<path d="M-124.371 306.878C-100.846 292.382 95.3671 182.057 663.679 306.184C1231.99 430.311 1434.37 172.645 1479.43 65.4954" stroke="url(#paint8_linear_9_459)" stroke-width="0.773742" stroke-miterlimit="10"/>
<path d="M-124.017 300.452C-102.297 287.071 98.1558 185.986 661.488 312.739C1224.82 439.491 1431.62 159.449 1473.21 60.5465" stroke="url(#paint9_linear_9_459)" stroke-width="0.773742" stroke-miterlimit="10"/>
<path d="M-123.663 294.018C-103.757 281.752 100.944 189.914 659.303 319.276C1217.66 448.639 1428.87 146.238 1466.99 55.5737" stroke="url(#paint10_linear_9_459)" stroke-width="0.773742" stroke-miterlimit="10"/>
<path d="M-123.318 287.584C-105.225 276.434 103.717 193.836 657.111 325.822C1210.51 457.808 1426.11 133.034 1460.77 50.616" stroke="url(#paint11_linear_9_459)" stroke-width="0.773742" stroke-miterlimit="10"/>
<path d="M-122.964 281.156C-106.676 271.121 106.506 197.772 654.928 332.374C1203.35 466.977 1423.36 119.836 1454.55 45.6575" stroke="url(#paint12_linear_9_459)" stroke-width="0.773742" stroke-miterlimit="10"/>
<path d="M-122.61 274.721C-108.136 265.801 109.294 201.691 652.735 338.912C1196.18 476.132 1420.6 106.631 1448.33 40.6916" stroke="url(#paint13_linear_9_459)" stroke-width="0.773742" stroke-miterlimit="10"/>
<path d="M-122.257 268.287C-109.588 260.482 112.083 205.62 650.551 345.457C1189.02 485.295 1417.85 93.4283 1442.11 35.7267" stroke="url(#paint14_linear_9_459)" stroke-width="0.773742" stroke-miterlimit="10"/>
<path d="M-121.903 261.859C-111.047 255.169 114.864 209.548 648.368 352.009C1181.87 494.47 1415.1 80.23 1435.9 30.7747" stroke="url(#paint15_linear_9_459)" stroke-width="0.773742" stroke-miterlimit="10"/>
<path d="M-121.55 255.426C-112.499 249.85 117.652 213.477 646.184 358.555C1174.71 503.634 1412.34 67.02 1429.67 25.8112" stroke="url(#paint16_linear_9_459)" stroke-width="0.773742" stroke-miterlimit="10"/>
<path d="M-121.205 248.993C-113.967 244.533 120.433 217.406 643.983 365.095C1167.53 512.784 1409.59 53.8161 1423.45 20.8463" stroke="url(#paint17_linear_9_459)" stroke-width="0.773742" stroke-miterlimit="10"/>
<path d="M-120.851 242.558C-115.419 239.213 123.214 221.328 641.799 371.64C1160.38 521.953 1406.84 40.6123 1417.23 15.8888" stroke="url(#paint18_linear_9_459)" stroke-width="0.773742" stroke-miterlimit="10"/>
<path d="M-120.497 236.13C-116.878 233.9 126.003 225.262 639.615 378.192C1153.23 531.121 1404.09 27.4065 1411.01 10.922" stroke="url(#paint19_linear_9_459)" stroke-width="0.773742" stroke-miterlimit="10"/>
<path d="M-120.143 229.698C-118.33 228.582 128.791 229.185 637.431 384.731C1146.07 540.278 1401.33 14.2049 1404.8 5.96594" stroke="url(#paint20_linear_9_459)" stroke-width="0.773742" stroke-miterlimit="10"/>
<path d="M-119.791 223.262C-119.791 223.262 131.579 233.112 635.238 391.276C1138.9 549.441 1398.57 1.00005 1398.57 1.00005" stroke="#FCEE21" stroke-width="0.773742" stroke-miterlimit="10"/>
<path d="M-115.861 234.851C-115.041 233.781 139.75 224.202 634.81 381.323C1129.87 538.445 1388.32 29.5236 1400.75 24.6827" stroke="#FBE421" stroke-width="0.773742" stroke-miterlimit="10"/>
<path d="M-111.93 246.45C-110.29 244.31 147.929 215.307 634.383 371.387C1120.84 527.466 1378.07 58.0483 1402.93 48.3674" stroke="#FBDA21" stroke-width="0.773742" stroke-miterlimit="10"/>
<path d="M-108 258.041C-105.539 254.83 156.109 206.405 633.947 361.436C1111.79 516.467 1367.82 86.5588 1405.11 72.0519" stroke="#FAD021" stroke-width="0.773742" stroke-miterlimit="10"/>
<path d="M-104.071 269.628C-100.798 265.349 164.286 197.493 633.519 351.489C1102.75 505.486 1357.55 115.082 1407.28 95.734" stroke="#F9C622" stroke-width="0.773742" stroke-miterlimit="10"/>
<path d="M-100.142 281.22C-96.0486 275.871 172.465 188.592 633.09 341.539C1093.71 494.486 1347.3 143.601 1409.46 119.412" stroke="#F8BC22" stroke-width="0.773742" stroke-miterlimit="10"/>
<path d="M-96.2036 292.81C-91.2904 286.39 180.644 179.682 632.663 331.594C1084.68 483.507 1337.05 172.125 1411.64 143.096" stroke="#F8B222" stroke-width="0.773742" stroke-miterlimit="10"/>
<path d="M-92.2746 304.398C-86.5413 296.908 188.822 170.777 632.234 321.648C1075.65 472.518 1326.79 200.64 1413.81 166.778" stroke="#F7A822" stroke-width="0.773742" stroke-miterlimit="10"/>
<path d="M-88.3445 315.988C-81.7909 307.428 197 161.868 631.806 311.696C1066.61 461.524 1316.54 229.158 1415.98 190.455" stroke="#F69E22" stroke-width="0.773742" stroke-miterlimit="10"/>
<path d="M-84.4145 327.585C-77.0407 317.955 205.18 152.972 631.378 301.751C1057.58 450.53 1306.28 257.682 1418.16 214.139" stroke="#F69422" stroke-width="0.773742" stroke-miterlimit="10"/>
<path d="M-80.4846 339.176C-72.2906 328.475 213.359 144.07 630.942 291.807C1048.53 439.545 1296.03 286.206 1420.33 237.823" stroke="#F58A22" stroke-width="0.773742" stroke-miterlimit="10"/>
<path d="M-76.5548 350.767C-67.5406 338.996 221.537 135.161 630.514 281.856C1039.49 428.552 1285.77 314.717 1422.51 261.501" stroke="#F48023" stroke-width="0.773742" stroke-miterlimit="10"/>
<path d="M-72.6172 362.355C-62.7908 349.515 229.716 126.257 630.094 271.91C1030.47 417.563 1275.52 343.24 1424.7 285.19" stroke="#F37623" stroke-width="0.773742" stroke-miterlimit="10"/>
<path d="M-68.6876 373.946C-58.041 360.036 237.894 117.348 629.657 261.959C1021.42 406.571 1265.26 371.759 1426.87 308.868" stroke="#F36C23" stroke-width="0.773742" stroke-miterlimit="10"/>
<path d="M-64.7581 385.538C-53.2913 370.558 246.073 108.447 629.23 252.017C1012.39 395.586 1255.01 400.284 1429.05 332.554" stroke="#F26223" stroke-width="0.773742" stroke-miterlimit="10"/>
<path d="M-60.8286 397.125C-48.5416 381.076 254.252 99.542 628.801 242.062C1003.35 384.582 1244.76 428.791 1431.22 356.227" stroke="#F15823" stroke-width="0.773742" stroke-miterlimit="10"/>
<path d="M-56.8984 408.716C-43.7913 391.596 262.43 90.6326 628.366 232.119C994.301 373.605 1234.49 457.318 1433.4 379.913" stroke="#F14E23" stroke-width="0.773742" stroke-miterlimit="10"/>
<path d="M-52.9682 420.314C-39.0409 402.124 270.602 81.7387 627.938 222.175C985.273 362.611 1224.24 485.843 1435.57 403.597" stroke="#F04423" stroke-width="0.773742" stroke-miterlimit="10"/>
<path d="M-49.0304 431.902C-34.2829 412.642 278.788 72.8265 627.518 212.228C976.248 351.63 1214 514.364 1437.75 427.279" stroke="#EF3A24" stroke-width="0.773742" stroke-miterlimit="10"/>
<path d="M-45.101 443.493C-29.5413 423.164 286.967 63.9246 627.081 202.278C967.195 340.63 1203.73 542.876 1439.92 450.957" stroke="#EE3024" stroke-width="0.773742" stroke-miterlimit="10"/>
<path d="M-41.1717 455.083C-24.7918 433.684 295.145 55.0221 626.653 192.333C958.161 329.644 1193.48 571.401 1442.1 474.641" stroke="#EE2624" stroke-width="0.773742" stroke-miterlimit="10"/>
<path d="M-37.2423 466.673C-20.0422 444.203 303.323 46.1113 626.224 182.38C949.125 318.649 1183.22 599.917 1444.28 498.324" stroke="#ED1C24" stroke-width="0.773742" stroke-miterlimit="10"/>
</g>
<defs>
<linearGradient id="paint0_linear_9_459" x1="-80.9539" y1="109.992" x2="1474.3" y2="401.093" gradientUnits="userSpaceOnUse">
<stop stop-color="#FF9074"/>
<stop offset="1" stop-color="#FFE23A" stop-opacity="0.8"/>
</linearGradient>
<linearGradient id="paint1_linear_9_459" x1="-86.0482" y1="114.083" x2="1474.48" y2="383.598" gradientUnits="userSpaceOnUse">
<stop stop-color="#FF9470"/>
<stop offset="1" stop-color="#FFE339" stop-opacity="0.8095"/>
</linearGradient>
<linearGradient id="paint2_linear_9_459" x1="-90.8853" y1="118.274" x2="1474.46" y2="365.409" gradientUnits="userSpaceOnUse">
<stop stop-color="#FF996C"/>
<stop offset="1" stop-color="#FFE338" stop-opacity="0.819"/>
</linearGradient>
<linearGradient id="paint3_linear_9_459" x1="-95.4096" y1="122.556" x2="1474.24" y2="347.064" gradientUnits="userSpaceOnUse">
<stop stop-color="#FF9D68"/>
<stop offset="1" stop-color="#FFE436" stop-opacity="0.8286"/>
</linearGradient>
<linearGradient id="paint4_linear_9_459" x1="-99.6447" y1="126.894" x2="1473.46" y2="328.763" gradientUnits="userSpaceOnUse">
<stop stop-color="#FEA264"/>
<stop offset="1" stop-color="#FEE435" stop-opacity="0.8381"/>
</linearGradient>
<linearGradient id="paint5_linear_9_459" x1="-103.552" y1="131.283" x2="1472.31" y2="310.175" gradientUnits="userSpaceOnUse">
<stop stop-color="#FEA660"/>
<stop offset="1" stop-color="#FEE534" stop-opacity="0.8476"/>
</linearGradient>
<linearGradient id="paint6_linear_9_459" x1="-107.149" y1="135.727" x2="1470.92" y2="291.653" gradientUnits="userSpaceOnUse">
<stop stop-color="#FEAB5C"/>
<stop offset="1" stop-color="#FEE533" stop-opacity="0.8571"/>
</linearGradient>
<linearGradient id="paint7_linear_9_459" x1="-110.419" y1="140.187" x2="1468.98" y2="272.889" gradientUnits="userSpaceOnUse">
<stop stop-color="#FEAF58"/>
<stop offset="1" stop-color="#FEE632" stop-opacity="0.8667"/>
</linearGradient>
<linearGradient id="paint8_linear_9_459" x1="-113.363" y1="144.673" x2="1466.79" y2="254.053" gradientUnits="userSpaceOnUse">
<stop stop-color="#FEB454"/>
<stop offset="1" stop-color="#FEE730" stop-opacity="0.8762"/>
</linearGradient>
<linearGradient id="paint9_linear_9_459" x1="-116.097" y1="150.929" x2="1463.94" y2="237.131" gradientUnits="userSpaceOnUse">
<stop stop-color="#FEB850"/>
<stop offset="1" stop-color="#FEE72F" stop-opacity="0.8857"/>
</linearGradient>
<linearGradient id="paint10_linear_9_459" x1="-118.887" y1="168.306" x2="1460.29" y2="231.147" gradientUnits="userSpaceOnUse">
<stop stop-color="#FEBD4C"/>
<stop offset="1" stop-color="#FEE82E" stop-opacity="0.8952"/>
</linearGradient>
<linearGradient id="paint11_linear_9_459" x1="-120.981" y1="185.645" x2="1456.78" y2="225.294" gradientUnits="userSpaceOnUse">
<stop stop-color="#FDC149"/>
<stop offset="1" stop-color="#FDE82D" stop-opacity="0.9048"/>
</linearGradient>
<linearGradient id="paint12_linear_9_459" x1="-122.366" y1="202.889" x2="1453.07" y2="219.248" gradientUnits="userSpaceOnUse">
<stop stop-color="#FDC645"/>
<stop offset="1" stop-color="#FDE92C" stop-opacity="0.9143"/>
</linearGradient>
<linearGradient id="paint13_linear_9_459" x1="-123.064" y1="220.039" x2="1449.49" y2="213.34" gradientUnits="userSpaceOnUse">
<stop stop-color="#FDCA41"/>
<stop offset="1" stop-color="#FDE92B" stop-opacity="0.9238"/>
</linearGradient>
<linearGradient id="paint14_linear_9_459" x1="-123.061" y1="237.037" x2="1445.71" y2="207.246" gradientUnits="userSpaceOnUse">
<stop stop-color="#FDCF3D"/>
<stop offset="1" stop-color="#FDEA29" stop-opacity="0.9333"/>
</linearGradient>
<linearGradient id="paint15_linear_9_459" x1="-122.371" y1="253.882" x2="1442.07" y2="201.127" gradientUnits="userSpaceOnUse">
<stop stop-color="#FDD339"/>
<stop offset="1" stop-color="#FDEB28" stop-opacity="0.9429"/>
</linearGradient>
<linearGradient id="paint16_linear_9_459" x1="-121.027" y1="270.528" x2="1438.23" y2="195.173" gradientUnits="userSpaceOnUse">
<stop stop-color="#FDD835"/>
<stop offset="1" stop-color="#FDEB27" stop-opacity="0.9524"/>
</linearGradient>
<linearGradient id="paint17_linear_9_459" x1="-119.004" y1="286.951" x2="1434.36" y2="189.038" gradientUnits="userSpaceOnUse">
<stop stop-color="#FDDC31"/>
<stop offset="1" stop-color="#FDEC26" stop-opacity="0.9619"/>
</linearGradient>
<linearGradient id="paint18_linear_9_459" x1="-116.34" y1="303.151" x2="1430.61" y2="183.064" gradientUnits="userSpaceOnUse">
<stop stop-color="#FCE12D"/>
<stop offset="1" stop-color="#FCEC25" stop-opacity="0.9714"/>
</linearGradient>
<linearGradient id="paint19_linear_9_459" x1="-113.029" y1="319.063" x2="1426.67" y2="176.922" gradientUnits="userSpaceOnUse">
<stop stop-color="#FCE529"/>
<stop offset="1" stop-color="#FCED23" stop-opacity="0.981"/>
</linearGradient>
<linearGradient id="paint20_linear_9_459" x1="-109.105" y1="334.711" x2="1422.86" y2="170.956" gradientUnits="userSpaceOnUse">
<stop stop-color="#FCEA25"/>
<stop offset="1" stop-color="#FCED22" stop-opacity="0.9905"/>
</linearGradient>
</defs>
</svg>
